<svg xmlns="http://www.w3.org/2000/svg" viewBox="0 0 729.98 785.61"><defs><style>.cls-1,.cls-17{fill:#f1f7e6;}.cls-14,.cls-15,.cls-2,.cls-21,.cls-25,.cls-26,.cls-28,.cls-29,.cls-3,.cls-30,.cls-31,.cls-32,.cls-33,.cls-34,.cls-35,.cls-4,.cls-40,.cls-41,.cls-49,.cls-5,.cls-52,.cls-53,.cls-54,.cls-6,.cls-7,.cls-8,.cls-9{fill:none;}.cls-2,.cls-25,.cls-29,.cls-4,.cls-52{stroke:#468966;}.cls-14,.cls-15,.cls-16,.cls-17,.cls-19,.cls-2,.cls-20,.cls-21,.cls-22,.cls-23,.cls-25,.cls-26,.cls-27,.cls-28,.cls-29,.cls-3,.cls-30,.cls-31,.cls-32,.cls-33,.cls-34,.cls-35,.cls-36,.cls-38,.cls-4,.cls-40,.cls-41,.cls-49,.cls-5,.cls-52,.cls-53,.cls-54,.cls-55,.cls-56,.cls-57,.cls-58,.cls-59,.cls-6,.cls-7,.cls-8,.cls-9{stroke-miterlimit:10;}.cls-2{stroke-width:7px;}.cls-3,.cls-31{stroke:#8e2800;}.cls-29,.cls-3,.cls-30,.cls-31,.cls-33,.cls-34,.cls-35,.cls-36,.cls-38,.cls-4,.cls-5,.cls-7{stroke-linecap:round;}.cls-14,.cls-15,.cls-3,.cls-4,.cls-49,.cls-5,.cls-52,.cls-53,.cls-54,.cls-55,.cls-56,.cls-57,.cls-58,.cls-59{stroke-width:4px;}.cls-26,.cls-27,.cls-30,.cls-38,.cls-5,.cls-53,.cls-55{stroke:#b64926;}.cls-20,.cls-22,.cls-35,.cls-36,.cls-40,.cls-41,.cls-57,.cls-58,.cls-6{stroke:#0078a4;}.cls-6{stroke-width:10px;}.cls-7{stroke:#ffb03b;stroke-width:16px;}.cls-32,.cls-34,.cls-8,.cls-9{stroke:#1c5379;}.cls-17,.cls-28,.cls-32,.cls-8,.cls-9{stroke-width:3px;}.cls-9{stroke-dasharray:3.75 3.75;}.cls-10{font-size:20px;}.cls-10,.cls-43,.cls-60,.cls-70{font-family:HelveticaNeue-Medium, Helvetica Neue;}.cls-11,.cls-13,.cls-16,.cls-50,.cls-72{font-family:HelveticaNeue-MediumItalic, Helvetica Neue;}.cls-11,.cls-13,.cls-16,.cls-50,.cls-67,.cls-72{font-style:italic;}.cls-12{letter-spacing:-0.02em;}.cls-13{font-size:36px;fill:red;}.cls-14,.cls-15,.cls-16,.cls-17,.cls-28,.cls-49{stroke:#000;}.cls-15{stroke-dasharray:10 10;}.cls-16,.cls-50{font-size:24px;}.cls-16{stroke-width:0.25px;}.cls-18{fill:#a6d3eb;}.cls-19,.cls-23,.cls-56,.cls-59{stroke:#e5901a;}.cls-19,.cls-20,.cls-21,.cls-22,.cls-23,.cls-25,.cls-26,.cls-27,.cls-40,.cls-41{stroke-width:2px;}.cls-21,.cls-54{stroke:#0b3239;}.cls-22,.cls-23,.cls-27,.cls-55,.cls-58,.cls-59{fill:#fff;}.cls-24{fill:#0078a4;}.cls-29,.cls-30,.cls-31,.cls-33,.cls-34,.cls-35,.cls-36,.cls-38{stroke-width:6px;}.cls-32{stroke-dasharray:4.05 4.05;}.cls-33{stroke:#a6d3eb;}.cls-36,.cls-39{fill:#1c5379;}.cls-37{fill:#e5901a;}.cls-38{fill:#ffb03b;}.cls-40,.cls-41{stroke-linecap:square;}.cls-41{stroke-dasharray:4.04 6.06;}.cls-42{letter-spacing:-0.11em;}.cls-43{font-size:21px;}.cls-44{letter-spacing:-0.04em;}.cls-45{letter-spacing:-0.09em;}.cls-46{letter-spacing:-0.02em;}.cls-47{letter-spacing:0em;}.cls-48{letter-spacing:-0.02em;}.cls-49{stroke-dasharray:9.7 9.7;}.cls-51{letter-spacing:-0.11em;}.cls-60{font-size:18.23px;}.cls-61{letter-spacing:-0.06em;}.cls-62{letter-spacing:-0.02em;}.cls-63{letter-spacing:0em;}.cls-64{letter-spacing:-0.11em;}.cls-65{letter-spacing:0em;}.cls-66{letter-spacing:-0.11em;}.cls-67{font-size:32px;font-family:HelveticaNeue-BoldItalic, Helvetica Neue;font-weight:700;}.cls-68{letter-spacing:-0.02em;}.cls-69{letter-spacing:-0.09em;}.cls-70{font-size:14px;}.cls-71{letter-spacing:0.02em;}.cls-72{font-size:16px;}</style></defs><title>Abstract_V3_svg</title><g id="Layer_2" data-name="Layer 2"><g id="Application"><g id="AMP"><g id="Bacterium"><path id="Cytoplasm" class="cls-1" d="M175.74,683.19c7.15-6.25,16.76-14.07,21.11-26.29s15.43-27.81,32.48-16.86c15.78,10.14-6,41.13-15.95,54s-52.06,38.19-62.57,19.14C141.24,695.79,164.31,693.19,175.74,683.19Z"/><path id="Membrane_5" data-name="Membrane 5" class="cls-2" d="M151.62,699.38c5-6.5,17.56-9.87,25.09-16.46,2.27-2,4.78-4.12,7.3-6.51"/><path id="Membrane_4" data-name="Membrane 4" class="cls-2" d="M172.86,721.87c-10.78,3.4-20.7,3.21-25.09-4.76A16.14,16.14,0,0,1,145.5,710"/><path id="Membrane_3" data-name="Membrane 3" class="cls-2" d="M230.54,671.81a159.84,159.84,0,0,1-15.66,23.85c-4.42,5.67-15.12,13.8-26.58,19.45"/><path id="Membrane_2" data-name="Membrane 2" class="cls-2" d="M209,637.9c5.54-4.51,12.83-6,21.74-.31,6.79,4.37,6.63,12.6,3.45,21.58"/><path id="Membrane_1" data-name="Membrane 1" class="cls-2" d="M188.14,671.4a45.25,45.25,0,0,0,8.71-14.49,45.29,45.29,0,0,1,5.69-11.07"/></g><g id="AMP_Molecule" data-name="AMP Molecule"><line class="cls-3" x1="177.42" y1="667.28" x2="184.49" y2="672.96"/><line class="cls-4" x1="170.01" y1="665.6" x2="177.42" y2="667.28"/><line class="cls-3" x1="164.31" y1="659.31" x2="170.01" y2="665.6"/><line class="cls-5" x1="164.16" y1="652.09" x2="164.31" y2="659.31"/><line class="cls-3" x1="156.38" y1="645.07" x2="164.16" y2="652.09"/><line class="cls-4" x1="157.91" y1="636.25" x2="156.38" y2="645.07"/></g></g><g id="Insulin_Receptor" data-name="Insulin + Receptor"><g id="Membrane"><path class="cls-6" d="M373.32,719.94c31.72-2.66,47.05,3.31,47.05,3.31"/><path class="cls-6" d="M312.15,731.23s17-10.1,41.34-10.1"/></g><g id="Receptor"><path class="cls-7" d="M343,673.12s-5.67,17.74,11.91,20.84a49.23,49.23,0,0,0,6.63,0l3.12,43.32"/><path class="cls-7" d="M378.38,671.86s7.75,17.18-9.83,20.28c-1.63.29-7,1.82-7,1.82"/></g><g id="Insulin"><g id="PTM_2" data-name="PTM 2"><line class="cls-4" x1="356.06" y1="655.02" x2="364.81" y2="674.89"/><line class="cls-5" x1="341.89" y1="638.32" x2="356.06" y2="655.02"/><line class="cls-3" x1="339.49" y1="619.01" x2="341.89" y2="638.32"/></g><g id="PTM_1" data-name="PTM 1"><line class="cls-3" x1="355.9" y1="677.66" x2="370.33" y2="691.66"/><line class="cls-4" x1="339.88" y1="672.44" x2="355.9" y2="677.66"/><line class="cls-3" x1="328.58" y1="657.38" x2="339.88" y2="672.44"/><line class="cls-5" x1="329.72" y1="641.41" x2="328.58" y2="657.38"/><line class="cls-3" x1="313.99" y1="624.33" x2="329.72" y2="641.41"/></g><g id="Bridge"><line class="cls-8" x1="349.69" y1="647.51" x2="348.29" y2="648.94"/><line class="cls-9" x1="345.67" y1="651.62" x2="336.48" y2="660.97"/><line class="cls-8" x1="335.16" y1="662.31" x2="333.76" y2="663.74"/></g></g></g><g id="Labels"><text class="cls-10" transform="translate(400.08 639.01)">Hormones<tspan class="cls-11"><tspan x="0" y="24">(Insulin)</tspan></tspan></text><text class="cls-10" transform="translate(522.68 684.8)">...And Many Mo<tspan class="cls-12" x="145.24" y="0">r</tspan><tspan x="151.92" y="0">e!</tspan></text><text class="cls-10" transform="translate(5.13 650.41)">Antibiotics<tspan class="cls-11"><tspan x="0" y="24">(Antimicrobial </tspan><tspan x="0" y="48">Peptides)</tspan></tspan></text><text class="cls-13" transform="translate(495.67 644.33)">*</text></g><g id="Divider"><line x1="3.59" y1="580.61" x2="703.59" y2="580.61"/><line class="cls-14" x1="3.59" y1="580.61" x2="8.59" y2="580.61"/><line class="cls-15" x1="18.59" y1="580.61" x2="693.59" y2="580.61"/><line class="cls-14" x1="698.59" y1="580.61" x2="703.59" y2="580.61"/></g><text class="cls-16" transform="translate(5.03 611.45)">Applications</text></g><g id="Translation_Modification" data-name="Translation + Modification"><g id="Plate_Water" data-name="Plate + Water"><ellipse id="Paper" class="cls-17" cx="353.59" cy="390.61" rx="70" ry="20"/><ellipse id="Water" class="cls-18" cx="353.59" cy="390.61" rx="62.88" ry="15.1"/><g id="Bits"><g id="DNA"><line class="cls-19" x1="335.75" y1="378.43" x2="335.28" y2="381.5"/><line class="cls-20" x1="338.77" y1="378.9" x2="338.3" y2="381.98"/><line class="cls-19" x1="341.79" y1="379.38" x2="341.32" y2="382.45"/><line class="cls-19" x1="344.81" y1="379.85" x2="344.34" y2="382.92"/><line class="cls-20" x1="347.83" y1="380.32" x2="347.36" y2="383.39"/><line class="cls-19" x1="350.85" y1="380.79" x2="350.38" y2="383.87"/><line class="cls-20" x1="353.87" y1="381.26" x2="353.4" y2="384.34"/><line class="cls-20" x1="356.88" y1="381.74" x2="356.42" y2="384.81"/><line class="cls-19" x1="359.9" y1="382.21" x2="359.44" y2="385.28"/><line class="cls-20" x1="362.92" y1="382.68" x2="362.46" y2="385.75"/><line class="cls-20" x1="365.94" y1="383.15" x2="365.48" y2="386.23"/><line class="cls-19" x1="368.96" y1="383.63" x2="368.49" y2="386.7"/><line class="cls-21" x1="369.78" y1="383.76" x2="334.93" y2="378.3"/><line class="cls-22" x1="334.85" y1="384.37" x2="335.32" y2="381.3"/><line class="cls-23" x1="337.87" y1="384.84" x2="338.33" y2="381.77"/><line class="cls-22" x1="340.89" y1="385.31" x2="341.35" y2="382.24"/><line class="cls-22" x1="343.91" y1="385.79" x2="344.37" y2="382.71"/><line class="cls-23" x1="346.93" y1="386.26" x2="347.39" y2="383.18"/><line class="cls-22" x1="349.94" y1="386.73" x2="350.41" y2="383.66"/><line class="cls-23" x1="352.96" y1="387.2" x2="353.43" y2="384.13"/><line class="cls-23" x1="355.98" y1="387.68" x2="356.45" y2="384.6"/><line class="cls-22" x1="359" y1="388.15" x2="359.47" y2="385.07"/><line class="cls-23" x1="362.02" y1="388.62" x2="362.49" y2="385.55"/><line class="cls-23" x1="365.04" y1="389.09" x2="365.51" y2="386.02"/><line class="cls-22" x1="368.06" y1="389.56" x2="368.53" y2="386.49"/><line class="cls-21" x1="368.88" y1="389.69" x2="334.03" y2="384.24"/></g><path class="cls-24" d="M304.94,393.72h0a2.7,2.7,0,0,1,2.12-3.14l7.24-1.37a2.66,2.66,0,0,1,3.09,2.15h0a2.7,2.7,0,0,1-2.12,3.14L308,395.87A2.66,2.66,0,0,1,304.94,393.72Z"/><path class="cls-24" d="M330.51,384.92h0a2.65,2.65,0,0,1-3.3,1.8l-7.06-2.15a2.7,2.7,0,0,1-1.78-3.35h0a2.65,2.65,0,0,1,3.3-1.8l7.06,2.15A2.7,2.7,0,0,1,330.51,384.92Z"/><path class="cls-24" d="M373.4,385.3h0a2.71,2.71,0,0,1,1.41-3.53l6.79-2.91a2.64,2.64,0,0,1,3.47,1.43h0a2.71,2.71,0,0,1-1.41,3.53l-6.79,2.91A2.64,2.64,0,0,1,373.4,385.3Z"/><g id="DNA-2" data-name="DNA"><line class="cls-25" x1="354.18" y1="396.8" x2="354.64" y2="399.6"/><line class="cls-26" x1="357.32" y1="396.39" x2="357.77" y2="399.2"/><line class="cls-25" x1="360.46" y1="395.99" x2="360.91" y2="398.79"/><line class="cls-25" x1="363.59" y1="395.58" x2="364.05" y2="398.39"/><line class="cls-26" x1="366.73" y1="395.18" x2="367.19" y2="397.98"/><line class="cls-25" x1="369.87" y1="394.78" x2="370.32" y2="397.58"/><line class="cls-26" x1="373" y1="394.37" x2="373.46" y2="397.18"/><line class="cls-26" x1="376.14" y1="393.97" x2="376.6" y2="396.77"/><line class="cls-25" x1="379.28" y1="393.57" x2="379.73" y2="396.37"/><line class="cls-26" x1="382.42" y1="393.16" x2="382.87" y2="395.97"/><line class="cls-26" x1="385.55" y1="392.76" x2="386.01" y2="395.56"/><line class="cls-25" x1="388.69" y1="392.36" x2="389.14" y2="395.16"/><line class="cls-21" x1="389.55" y1="392.25" x2="353.33" y2="396.91"/><line class="cls-27" x1="355.06" y1="402.21" x2="354.61" y2="399.41"/><line class="cls-25" x1="358.2" y1="401.81" x2="357.74" y2="399.01"/><line class="cls-27" x1="361.34" y1="401.4" x2="360.88" y2="398.6"/><line class="cls-27" x1="364.47" y1="401" x2="364.02" y2="398.2"/><line class="cls-25" x1="367.61" y1="400.6" x2="367.15" y2="397.79"/><line class="cls-27" x1="370.75" y1="400.19" x2="370.29" y2="397.39"/><line class="cls-25" x1="373.88" y1="399.79" x2="373.43" y2="396.99"/><line class="cls-25" x1="377.02" y1="399.39" x2="376.57" y2="396.58"/><line class="cls-27" x1="380.16" y1="398.98" x2="379.7" y2="396.18"/><line class="cls-25" x1="383.29" y1="398.58" x2="382.84" y2="395.78"/><line class="cls-25" x1="386.43" y1="398.18" x2="385.98" y2="395.37"/><line class="cls-27" x1="389.57" y1="397.77" x2="389.11" y2="394.97"/><line class="cls-21" x1="390.42" y1="397.66" x2="354.21" y2="402.32"/></g></g></g><path id="Drop" class="cls-18" d="M353.6,343.73c1.27,2.54,2.65,5.09,3.83,7.73a4.44,4.44,0,0,1-1.56,5.44,4.59,4.59,0,0,1-5.36-.61,4.91,4.91,0,0,1-.69-5.22c.39-.86.88-1.68,1.31-2.52Z"/><g id="Dropper"><path d="M345.84,280.47c0-3.46-.28-7.1-.09-10.72.22-4.18,2.43-5.85,6.69-6.64,3.66-.68,7.6,1.75,8.53,4.73a5.59,5.59,0,0,1,.25,1.55c.06,3.64.08,7.27.12,11,2.06.39,3.08,1.52,3,3.44a3.22,3.22,0,0,1-3,2.88c-4.93.16-9.87.3-14.81.39a3.63,3.63,0,0,1-3.27-1.81,2.65,2.65,0,0,1,.31-3.32A9.65,9.65,0,0,1,345.84,280.47Z"/><path class="cls-18" d="M346.57,323.41a12,12,0,0,0,.39,3.91c.48,1.19,4.39,2.28,4.51,4.71.13,2.71,0,6.19,0,6.19l5.07-.27s-.11-3.75,0-6.19,4.05-3.56,4.54-4.75a12,12,0,0,0,.42-3.92v-6.3Z"/><path class="cls-28" d="M356.55,337.95s-.11-3.75,0-6.19,4.05-3.56,4.54-4.75a12,12,0,0,0,.42-3.92v-33.6l-15.2.19.21,33.72a12,12,0,0,0,.39,3.91c.48,1.19,4.39,2.28,4.51,4.71.13,2.71,0,6.19,0,6.19Z"/></g><g id="Cleave_Protein" data-name="Cleave Protein"><g id="PTM_2-2" data-name="PTM 2"><line class="cls-29" x1="589.16" y1="426.73" x2="615.77" y2="426.73"/><line class="cls-30" x1="566.95" y1="439.54" x2="589.16" y2="426.73"/><line class="cls-31" x1="544.21" y1="438.25" x2="566.95" y2="439.54"/><line class="cls-30" x1="518.39" y1="426.73" x2="544.21" y2="438.25"/></g><g id="PTM_1-2" data-name="PTM 1"><line class="cls-31" x1="639.31" y1="440.32" x2="658.47" y2="426.64"/><line class="cls-29" x1="629.94" y1="457.67" x2="639.31" y2="440.32"/><line class="cls-31" x1="610.22" y1="467.52" x2="629.94" y2="457.67"/><line class="cls-30" x1="592.07" y1="462.85" x2="610.22" y2="467.52"/><line class="cls-31" x1="569.09" y1="477.38" x2="592.07" y2="462.85"/><line class="cls-29" x1="548.12" y1="467.38" x2="569.09" y2="477.38"/></g><g id="Bridge-2" data-name="Bridge"><line class="cls-8" x1="579.17" y1="432.49" x2="580.33" y2="434.13"/><line class="cls-32" x1="582.66" y1="437.43" x2="600.14" y2="462.24"/><line class="cls-8" x1="601.31" y1="463.89" x2="602.46" y2="465.53"/></g></g><g id="Translation_Complex" data-name="Translation Complex"><g id="RNA"><line class="cls-33" x1="117.58" y1="411.94" x2="104.7" y2="409.57"/><line class="cls-34" x1="128" y1="418.67" x2="117.58" y2="411.94"/><line class="cls-35" x1="139.58" y1="424.28" x2="128" y2="418.67"/><line class="cls-34" x1="151.38" y1="425.86" x2="139.58" y2="424.28"/><line class="cls-33" x1="165.42" y1="428.04" x2="151.38" y2="425.86"/><line class="cls-35" x1="178.59" y1="434.74" x2="165.42" y2="428.04"/><line class="cls-33" x1="189.36" y1="447.36" x2="178.59" y2="434.74"/><line class="cls-34" x1="200.44" y1="453.28" x2="189.36" y2="447.36"/><line class="cls-36" x1="211.33" y1="463.42" x2="200.44" y2="453.28"/></g><g id="Ribosome"><path class="cls-37" d="M164.37,436.3c-2.55-1.13-3.18-1.27-4.16-4.45s-.24-4.4,2.63-3.91,2.85,1.93,4.93,3.06,4.39.24,7,2.32-.47,3.42-2.43,3.91A14.85,14.85,0,0,1,164.37,436.3Z"/><path class="cls-37" d="M183.44,398.85c-10.16-2.92-15.85,2.92-18.78,8.93s-3.23,7.23-3.23,7.23-1.85,4.93,0,9.08,5.4,1.41,8.63,3.71,3.55,3.18,6.58,4.14c5.47,1.73,9.88-4.14,9.88-4.14s3.54-4.79,4.16-8.63S193.89,401.86,183.44,398.85Z"/></g><g id="AMP-2" data-name="AMP"><line class="cls-30" x1="140.05" y1="374.63" x2="145.15" y2="383.34"/><line class="cls-29" x1="140.05" y1="360.4" x2="140.05" y2="374.63"/><line class="cls-31" x1="152.4" y1="351.95" x2="140.05" y2="360.4"/><line class="cls-30" x1="166.63" y1="355.3" x2="152.4" y2="351.95"/><line class="cls-31" x1="170.38" y1="366.58" x2="166.63" y2="355.3"/><line class="cls-29" x1="180.58" y1="378.93" x2="170.38" y2="366.58"/><line class="cls-30" x1="193.56" y1="383.34" x2="180.58" y2="378.93"/><line class="cls-29" x1="208.23" y1="380.45" x2="193.56" y2="383.34"/><line class="cls-31" x1="214.14" y1="369.53" x2="208.23" y2="380.45"/><line class="cls-29" x1="202.97" y1="360.4" x2="214.14" y2="369.53"/><line class="cls-31" x1="188.9" y1="359.33" x2="202.97" y2="360.4"/><line class="cls-30" x1="178.59" y1="367.92" x2="188.9" y2="359.33"/><line class="cls-31" x1="167.16" y1="373.02" x2="178.59" y2="367.92"/><line class="cls-38" x1="160.4" y1="383.34" x2="167.16" y2="373.02"/><line class="cls-31" x1="165.55" y1="395.82" x2="160.4" y2="383.34"/><line class="cls-30" x1="178.59" y1="405.16" x2="165.55" y2="395.82"/></g></g><g id="Remove_MET" data-name="Remove MET"><g id="Peptide"><line class="cls-31" x1="276.99" y1="520.36" x2="297.36" y2="505.82"/><line class="cls-29" x1="267.03" y1="538.8" x2="276.99" y2="520.36"/><line class="cls-31" x1="246.08" y1="549.27" x2="267.03" y2="538.8"/><line class="cls-30" x1="226.78" y1="544.31" x2="246.08" y2="549.27"/><line class="cls-31" x1="202.36" y1="559.75" x2="226.78" y2="544.31"/><line class="cls-29" x1="180.07" y1="549.12" x2="202.36" y2="559.75"/></g><g id="MET_remover" data-name="MET remover"><g id="Ribosome-2" data-name="Ribosome"><path class="cls-39" d="M293,482.6c-1.91,5.79-6.55,6.6-10.36,6a32.85,32.85,0,0,1-4.5-.81,7.83,7.83,0,0,1-4.33-3c-1.38-2.23,1.09-3,1-5.32s-.36-2.73.17-4.48c1-3.17,5.19-3.36,5.19-3.36a14.63,14.63,0,0,1,5.47.83C287.71,473.5,295,476.65,293,482.6Z"/></g><g id="Ribosome-3" data-name="Ribosome"><path class="cls-18" d="M263.73,490.61c2.1-5.73,6.76-6.38,10.55-5.7a32.85,32.85,0,0,1,4.47,1A7.83,7.83,0,0,1,283,489c1.31,2.28-1.18,3-1.21,5.28s.27,2.74-.31,4.48c-1.06,3.14-5.29,3.19-5.29,3.19a14.63,14.63,0,0,1-5.44-1C268.72,499.87,261.57,496.49,263.73,490.61Z"/></g><path class="cls-24" d="M286.93,482.26c2.85-1.9,6.64-2,10.3-2a27.1,27.1,0,0,1,10.3,2,26.56,26.56,0,0,1,8.41,5.49c2.39,2.32,2.7,3.91,4,7s2.84,7.37,1.87,10.77c-.77,2.69-1.46,4.78-3.32,6.87-2.21,2.49-4,8.26-6.77,11.17A13.45,13.45,0,0,1,301,528.29c-5,0-5.6-3.06-6.59-5-1.53-3-2-7.53-3.38-10.59S277,511.89,277,508.35s0-7.77,1.51-10.77C280.42,493.66,281.09,486.16,286.93,482.26Z"/></g><line id="MET" class="cls-29" x1="328.36" y1="511.36" x2="350.66" y2="521.99"/></g><g id="Glycosylation"><g id="Peptide-2" data-name="Peptide"><line class="cls-31" x1="444.64" y1="527.12" x2="438.75" y2="548.06"/><line class="cls-29" x1="429.72" y1="515.94" x2="444.64" y2="527.12"/><line class="cls-31" x1="420.33" y1="495.73" x2="429.72" y2="515.94"/><line class="cls-30" x1="420.33" y1="495.73" x2="403.07" y2="483.74"/><line class="cls-31" x1="393.69" y1="460.48" x2="403.07" y2="483.74"/></g><g id="Carb"><polygon class="cls-1" points="440.63 489.21 444.85 473.51 460.56 469.31 472.05 480.82 467.82 496.52 452.11 500.72 440.63 489.21"/><path class="cls-24" d="M460.26,470.43l10.67,10.69L467,495.71l-14.59,3.9-10.67-10.69,3.92-14.59,14.59-3.9m.6-2.23L444,472.69l-4.52,16.82,12.3,12.33,16.83-4.49,4.52-16.82-12.3-12.33Z"/><polygon class="cls-1" points="466.97 496.75 471.19 481.05 486.9 476.86 498.39 488.36 494.17 504.06 478.45 508.26 466.97 496.75"/><path class="cls-24" d="M486.6,478l10.67,10.69-3.92,14.59-14.59,3.9-10.67-10.69L472,481.87,486.6,478m.6-2.23-16.83,4.49L465.85,497l12.3,12.33L495,504.88l4.52-16.82-12.3-12.33Z"/><polygon class="cls-1" points="486.54 477.3 493.53 463.6 508.72 466.02 511.11 481.21 497.4 488.18 486.54 477.3"/><path class="cls-24" d="M494.09,464.7l13.75,2.19L510,480.65,497.6,487l-9.84-9.86,6.33-12.4M493,462.5l-7.66,15,11.89,11.91,15-7.63-2.62-16.63L493,462.5Z"/></g><line class="cls-40" x1="439.51" y1="489.51" x2="437.61" y2="490.12"/><line class="cls-41" x1="431.84" y1="491.99" x2="425.12" y2="494.18"/><line class="cls-40" x1="422.23" y1="495.11" x2="420.33" y2="495.73"/></g><g id="Labels-2" data-name="Labels"><text class="cls-10" transform="translate(489.46 541.01)">Glycosylation</text><text class="cls-10" transform="translate(51.65 511.36)">Remove N-<tspan class="cls-42" x="103.74" y="0">T</tspan><tspan x="113.38" y="0">erminus </tspan><tspan x="0" y="24">Methionine</tspan></text><text class="cls-43" transform="translate(378.84 356.59)">Just Add <tspan class="cls-44" x="92.57" y="0">W</tspan><tspan x="111.61" y="0">ater!</tspan></text><text class="cls-10" transform="translate(21.42 385.98)"><tspan class="cls-45">T</tspan><tspan x="10.02" y="0">ranslation</tspan></text><text class="cls-10" transform="translate(474.83 405.72)">Cleave P<tspan class="cls-46" x="81.9" y="0">r</tspan><tspan class="cls-47" x="88.58" y="0">ecursor P</tspan><tspan class="cls-48" x="177.52" y="0">r</tspan><tspan x="184.2" y="0">oteins</tspan></text><text class="cls-13" transform="translate(715.15 411.94)">*</text><text class="cls-13" transform="translate(612.56 545.66)">*</text></g><g id="Divider-2" data-name="Divider"><line x1="373.59" y1="300.61" x2="703.59" y2="300.61"/><line class="cls-14" x1="373.59" y1="300.61" x2="378.59" y2="300.61"/><line class="cls-49" x1="388.29" y1="300.61" x2="693.74" y2="300.61"/><line class="cls-14" x1="698.59" y1="300.61" x2="703.59" y2="300.61"/></g><g id="Divider-3" data-name="Divider"><line x1="3.59" y1="300.61" x2="333.59" y2="300.61"/><line class="cls-14" x1="3.59" y1="300.61" x2="8.59" y2="300.61"/><line class="cls-49" x1="18.29" y1="300.61" x2="323.74" y2="300.61"/><line class="cls-14" x1="328.59" y1="300.61" x2="333.59" y2="300.61"/></g><text class="cls-50" transform="translate(0 331.45)"><tspan class="cls-51">T</tspan><tspan x="11.57" y="0">ranslation and Modification</tspan></text></g><g id="Sample_Prep" data-name="Sample Prep"><line class="cls-28" x1="447.13" y1="251.32" x2="518.59" y2="265.61"/><path d="M464.41,269.46a1.5,1.5,0,0,0,0-2.12L447.8,251.45l21.4-8.29a1.5,1.5,0,0,0-1.08-2.8l-23.6,9.14A1.5,1.5,0,0,0,444,252l18.26,17.52a1.5,1.5,0,0,0,2.12,0Z"/><line class="cls-28" x1="447.13" y1="194.9" x2="518.59" y2="180.61"/><path d="M470.06,205a1.5,1.5,0,0,0-.86-1.94l-21.4-8.29,16.56-15.89a1.5,1.5,0,0,0-2.08-2.17L444,194.23a1.5,1.5,0,0,0,.5,2.48l23.6,9.14a1.5,1.5,0,0,0,1.94-.86Z"/><line class="cls-28" x1="151.04" y1="217.03" x2="247.31" y2="217.03"/><path d="M226.8,231.43a1.5,1.5,0,0,1,.46-2.07L246.62,217,227.26,204.7a1.5,1.5,0,0,1,1.61-2.53l21.34,13.59a1.5,1.5,0,0,1,0,2.53l-21.34,13.59a1.5,1.5,0,0,1-2.07-.46Z"/><g id="PTM_DNA" data-name="PTM DNA"><line class="cls-52" x1="530.88" y1="257.48" x2="530.87" y2="265.87"/><line class="cls-53" x1="539.24" y1="257.49" x2="539.23" y2="265.87"/><line class="cls-52" x1="547.59" y1="257.49" x2="547.59" y2="265.88"/><line class="cls-52" x1="555.95" y1="257.5" x2="555.95" y2="265.88"/><line class="cls-53" x1="564.31" y1="257.5" x2="564.3" y2="265.88"/><line class="cls-52" x1="572.67" y1="257.51" x2="572.66" y2="265.89"/><line class="cls-53" x1="581.02" y1="257.51" x2="581.02" y2="265.89"/><line class="cls-53" x1="589.38" y1="257.52" x2="589.38" y2="265.9"/><line class="cls-52" x1="597.74" y1="257.52" x2="597.73" y2="265.9"/><line class="cls-53" x1="606.1" y1="257.52" x2="606.09" y2="265.91"/><line class="cls-53" x1="614.45" y1="257.53" x2="614.45" y2="265.91"/><line class="cls-52" x1="622.81" y1="257.53" x2="622.81" y2="265.92"/><line class="cls-54" x1="625.09" y1="257.54" x2="528.6" y2="257.48"/><line class="cls-55" x1="530.87" y1="273.68" x2="530.88" y2="265.3"/><line class="cls-52" x1="539.23" y1="273.69" x2="539.23" y2="265.3"/><line class="cls-55" x1="547.59" y1="273.69" x2="547.59" y2="265.31"/><line class="cls-55" x1="555.94" y1="273.7" x2="555.95" y2="265.31"/><line class="cls-52" x1="564.3" y1="273.7" x2="564.3" y2="265.32"/><line class="cls-55" x1="572.66" y1="273.71" x2="572.66" y2="265.32"/><line class="cls-52" x1="581.02" y1="273.71" x2="581.02" y2="265.33"/><line class="cls-52" x1="589.37" y1="273.71" x2="589.38" y2="265.33"/><line class="cls-55" x1="597.73" y1="273.72" x2="597.73" y2="265.34"/><line class="cls-52" x1="606.09" y1="273.72" x2="606.09" y2="265.34"/><line class="cls-52" x1="614.44" y1="273.73" x2="614.45" y2="265.34"/><line class="cls-55" x1="622.8" y1="273.73" x2="622.81" y2="265.35"/><line class="cls-54" x1="625.08" y1="273.73" x2="528.59" y2="273.68"/></g><g id="AMP_DNA" data-name="AMP DNA"><line class="cls-56" x1="530.88" y1="172.48" x2="530.87" y2="180.87"/><line class="cls-57" x1="539.24" y1="172.49" x2="539.23" y2="180.87"/><line class="cls-56" x1="547.59" y1="172.49" x2="547.59" y2="180.88"/><line class="cls-56" x1="555.95" y1="172.5" x2="555.95" y2="180.88"/><line class="cls-57" x1="564.31" y1="172.5" x2="564.3" y2="180.88"/><line class="cls-56" x1="572.67" y1="172.51" x2="572.66" y2="180.89"/><line class="cls-57" x1="581.02" y1="172.51" x2="581.02" y2="180.89"/><line class="cls-57" x1="589.38" y1="172.52" x2="589.38" y2="180.9"/><line class="cls-56" x1="597.74" y1="172.52" x2="597.73" y2="180.9"/><line class="cls-57" x1="606.1" y1="172.52" x2="606.09" y2="180.91"/><line class="cls-57" x1="614.45" y1="172.53" x2="614.45" y2="180.91"/><line class="cls-56" x1="622.81" y1="172.53" x2="622.81" y2="180.92"/><line class="cls-54" x1="625.09" y1="172.54" x2="528.6" y2="172.48"/><line class="cls-58" x1="530.87" y1="188.68" x2="530.88" y2="180.3"/><line class="cls-59" x1="539.23" y1="188.69" x2="539.23" y2="180.3"/><line class="cls-58" x1="547.59" y1="188.69" x2="547.59" y2="180.31"/><line class="cls-58" x1="555.94" y1="188.7" x2="555.95" y2="180.31"/><line class="cls-59" x1="564.3" y1="188.7" x2="564.3" y2="180.32"/><line class="cls-58" x1="572.66" y1="188.71" x2="572.66" y2="180.32"/><line class="cls-59" x1="581.02" y1="188.71" x2="581.02" y2="180.33"/><line class="cls-59" x1="589.37" y1="188.71" x2="589.38" y2="180.33"/><line class="cls-58" x1="597.73" y1="188.72" x2="597.73" y2="180.34"/><line class="cls-59" x1="606.09" y1="188.72" x2="606.09" y2="180.34"/><line class="cls-59" x1="614.44" y1="188.73" x2="614.45" y2="180.34"/><line class="cls-58" x1="622.8" y1="188.73" x2="622.81" y2="180.35"/><line class="cls-54" x1="625.08" y1="188.73" x2="528.59" y2="188.68"/></g><g id="Pellets"><rect class="cls-24" x="35.84" y="202.26" width="18.68" height="36.38" rx="8.21" ry="8.21"/><rect class="cls-24" x="64.25" y="217.46" width="18.68" height="36.38" rx="8.21" ry="8.21"/><rect class="cls-24" x="92.66" y="194.19" width="18.68" height="36.38" rx="8.21" ry="8.21"/></g><g id="Plate"><ellipse id="Paper-2" data-name="Paper" class="cls-17" cx="353.59" cy="220.06" rx="70" ry="20"/><g id="Soup"><g id="DNA-3" data-name="DNA"><line class="cls-19" x1="338.22" y1="224.85" x2="339.81" y2="227.5"/><line class="cls-20" x1="340.83" y1="223.23" x2="342.42" y2="225.89"/><line class="cls-19" x1="343.43" y1="221.62" x2="345.03" y2="224.28"/><line class="cls-19" x1="346.04" y1="220.01" x2="347.64" y2="222.66"/><line class="cls-20" x1="348.65" y1="218.4" x2="350.25" y2="221.05"/><line class="cls-19" x1="351.26" y1="216.78" x2="352.86" y2="219.44"/><line class="cls-20" x1="353.87" y1="215.17" x2="355.46" y2="217.83"/><line class="cls-20" x1="356.48" y1="213.56" x2="358.07" y2="216.21"/><line class="cls-19" x1="359.09" y1="211.95" x2="360.68" y2="214.6"/><line class="cls-20" x1="361.7" y1="210.33" x2="363.29" y2="212.99"/><line class="cls-20" x1="364.31" y1="208.72" x2="365.9" y2="211.38"/><line class="cls-19" x1="366.92" y1="207.11" x2="368.51" y2="209.77"/><line class="cls-21" x1="367.63" y1="206.67" x2="337.5" y2="225.28"/><line class="cls-22" x1="341.3" y1="229.98" x2="339.7" y2="227.32"/><line class="cls-23" x1="343.91" y1="228.36" x2="342.31" y2="225.71"/><line class="cls-22" x1="346.51" y1="226.75" x2="344.92" y2="224.1"/><line class="cls-22" x1="349.12" y1="225.14" x2="347.53" y2="222.48"/><line class="cls-23" x1="351.73" y1="223.53" x2="350.14" y2="220.87"/><line class="cls-22" x1="354.34" y1="221.92" x2="352.75" y2="219.26"/><line class="cls-23" x1="356.95" y1="220.3" x2="355.36" y2="217.65"/><line class="cls-23" x1="359.56" y1="218.69" x2="357.97" y2="216.03"/><line class="cls-22" x1="362.17" y1="217.08" x2="360.57" y2="214.42"/><line class="cls-23" x1="364.78" y1="215.47" x2="363.18" y2="212.81"/><line class="cls-23" x1="367.39" y1="213.85" x2="365.79" y2="211.2"/><line class="cls-22" x1="370" y1="212.24" x2="368.4" y2="209.59"/><line class="cls-21" x1="370.71" y1="211.8" x2="340.58" y2="230.42"/></g><g id="Pellets-2" data-name="Pellets"><rect class="cls-24" x="308.51" y="211.14" width="5.3" height="12.86" rx="2.36" ry="2.36"/><rect class="cls-24" x="316.57" y="216.51" width="5.3" height="12.86" rx="2.36" ry="2.36"/><rect class="cls-24" x="324.64" y="208.29" width="5.3" height="12.86" rx="2.36" ry="2.36"/></g><g id="DNA-4" data-name="DNA"><line class="cls-25" x1="356.09" y1="225.23" x2="356.55" y2="228.38"/><line class="cls-26" x1="359.23" y1="224.78" x2="359.68" y2="227.93"/><line class="cls-25" x1="362.37" y1="224.33" x2="362.82" y2="227.47"/><line class="cls-25" x1="365.5" y1="223.87" x2="365.96" y2="227.02"/><line class="cls-26" x1="368.64" y1="223.42" x2="369.1" y2="226.57"/><line class="cls-25" x1="371.78" y1="222.97" x2="372.23" y2="226.11"/><line class="cls-26" x1="374.91" y1="222.52" x2="375.37" y2="225.66"/><line class="cls-26" x1="378.05" y1="222.06" x2="378.51" y2="225.21"/><line class="cls-25" x1="381.19" y1="221.61" x2="381.64" y2="224.76"/><line class="cls-26" x1="384.33" y1="221.16" x2="384.78" y2="224.3"/><line class="cls-26" x1="387.46" y1="220.7" x2="387.92" y2="223.85"/><line class="cls-25" x1="390.6" y1="220.25" x2="391.05" y2="223.4"/><line class="cls-21" x1="391.46" y1="220.13" x2="355.24" y2="225.36"/><line class="cls-27" x1="356.97" y1="231.31" x2="356.52" y2="228.16"/><line class="cls-25" x1="360.11" y1="230.86" x2="359.65" y2="227.71"/><line class="cls-27" x1="363.25" y1="230.4" x2="362.79" y2="227.26"/><line class="cls-27" x1="366.38" y1="229.95" x2="365.93" y2="226.81"/><line class="cls-25" x1="369.52" y1="229.5" x2="369.06" y2="226.35"/><line class="cls-27" x1="372.66" y1="229.05" x2="372.2" y2="225.9"/><line class="cls-25" x1="375.79" y1="228.59" x2="375.34" y2="225.45"/><line class="cls-25" x1="378.93" y1="228.14" x2="378.48" y2="224.99"/><line class="cls-27" x1="382.07" y1="227.69" x2="381.61" y2="224.54"/><line class="cls-25" x1="385.2" y1="227.23" x2="384.75" y2="224.09"/><line class="cls-25" x1="388.34" y1="226.78" x2="387.89" y2="223.64"/><line class="cls-27" x1="391.48" y1="226.33" x2="391.02" y2="223.18"/><line class="cls-21" x1="392.33" y1="226.2" x2="356.12" y2="231.43"/></g></g></g><g id="Labels-3" data-name="Labels"><text class="cls-60" transform="translate(298.69 154.86)">Pape<tspan class="cls-61" x="43.58" y="0">r</tspan><tspan x="49" y="0">-Based</tspan><tspan x="-17.56" y="21.88">Reaction Surface</tspan></text><text class="cls-60" transform="translate(19.67 154.86)">F<tspan class="cls-62" x="10.81" y="0">r</tspan><tspan class="cls-63" x="16.9" y="0">eeze-Dried </tspan><tspan x="0" y="21.88">P</tspan><tspan class="cls-62" x="12.16" y="21.88">r</tspan><tspan x="18.25" y="21.88">otein Exp</tspan><tspan class="cls-62" x="97.63" y="21.88">r</tspan><tspan x="103.72" y="21.88">ession Mix</tspan></text><text class="cls-60" transform="translate(528.72 155.8)">AMP <tspan class="cls-64" x="45.6" y="0">T</tspan><tspan x="54.39" y="0">emplates</tspan></text><text class="cls-60" transform="translate(528.59 240.8)">PTM P<tspan class="cls-62" x="56.42" y="0">r</tspan><tspan class="cls-65" x="62.51" y="0">otein </tspan><tspan class="cls-66" x="109.46" y="0">T</tspan><tspan x="118.25" y="0">emplates</tspan></text></g><g id="Divider-4" data-name="Divider"><line x1="3.59" y1="90.61" x2="703.59" y2="90.61"/><line class="cls-14" x1="3.59" y1="90.61" x2="8.59" y2="90.61"/><line class="cls-15" x1="18.59" y1="90.61" x2="693.59" y2="90.61"/><line class="cls-14" x1="698.59" y1="90.61" x2="703.59" y2="90.61"/></g><text class="cls-50" transform="translate(0 121.45)">Sample Prep</text></g><g id="Title"><text class="cls-67" transform="translate(63.55 27.42)">Expansion of Cell-F<tspan class="cls-68" x="297.53" y="0">r</tspan><tspan x="309.4" y="0">ee Manufacturing</tspan><tspan x="14.54" y="38.4">with Post-</tspan><tspan class="cls-69" x="170.99" y="38.4">T</tspan><tspan x="187.6" y="38.4">ranslational Modification</tspan></text><text class="cls-70" transform="translate(535.54 766.59)">iGEM Northeaste<tspan class="cls-71" x="110.47" y="0">r</tspan><tspan x="115.65" y="0">n - 2017</tspan></text><text class="cls-13" transform="translate(0.59 772.29)">*</text><text class="cls-72" transform="translate(18.69 764.69)">Has not been developed yet</text></g></g></svg>