<svg xmlns="http://www.w3.org/2000/svg" viewBox="0 0 567.71 84.43"><defs><style>.cls-1{fill:#615445;}.cls-2{font-size:48px;fill:#c00;font-family:Baskerville, Baskerville;}.cls-3{letter-spacing:0.03em;}.cls-4{letter-spacing:-0.02em;}.cls-5{letter-spacing:0.01em;}</style></defs><title>neu_type_logo_svg</title><g id="Layer_2" data-name="Layer 2"><g id="Layer_1-2" data-name="Layer 1"><path class="cls-1" d="M53.6,11a4.87,4.87,0,0,0,1.4.32c.69,0,1.19-.41,1.71-1.25.82-1.86.89-2.14,1.23-2.09s.37-.21-.06-.41a3.24,3.24,0,0,0-.67-.26c-.34-.11-.26.2-.18.26s.07.31.07.31-.24.49-.44.9a5.73,5.73,0,0,1-.47.9c-.14.22-.28.48-.41.66a1.13,1.13,0,0,1-1.56.37c-.87-.44-.68-1.13-.49-2.06.34-1.18.63-1.91,1-1.91s.45-.15-.23-.44c-1.26-.54-1.31-.49-1.21-.15a.48.48,0,0,1,0,.44,6.44,6.44,0,0,1-.17.85,4.77,4.77,0,0,1-.35.91C52.45,9.38,52.29,10.46,53.6,11ZM46.15,45.39c.52.39.61.13.78-.16a.34.34,0,0,1,.42-.3c.19,0,.42.1.42.46s.32.46.55.46.13-.13.07-.43a15,15,0,0,1-.26-1.54c-.1-.59-.29-.72-.62-.75s-.32,0-.52.42a5,5,0,0,0-.49,1.15A2.73,2.73,0,0,0,46.15,45.39ZM47.29,44c.26-.43.36,0,.36,0v.43C47.09,44.57,47.22,44.41,47.29,44ZM43,9c.89,0,1.41.23.53-.56l.1-2.11s.1-.57.49,0c.68.88,1.75,2.24,1.75,2.24l.31.34c.37.4.93.89.87-.09a28.16,28.16,0,0,1,.36-3.38.4.4,0,0,1,.37-.28c.29,0,.42-.33-.45-.38s-.89,0-.4.51c-.1,1.52-.18,2.11-.18,2.11s.1.69-.39.15c-.59-.79-1.12-1.38-1.44-1.83a8.19,8.19,0,0,1-.79-1.17,1.19,1.19,0,0,0-.79-.24c-.53,0-.89.07-.11.69a29.85,29.85,0,0,1-.23,3.33S42.06,8.91,43,9ZM27.54,8.33c.15,0,.19-.11.26-.27a1.31,1.31,0,0,1,.53-.62c.23-.16.6-.31.8.18,0,0,.4,1.05.7,1.93.2.58.36,1.1.36,1.1s-.53.83.24.43,1.74-.59.8-.82C31,10,31,9.83,31,9.78,30.71,9,30,7,30,7s-.07-.2.25-.3a1.08,1.08,0,0,1,1.14,0c.12.06.43.12.3-.26a1.08,1.08,0,0,0-.52-.54c-.33,0-.44.13-.55.16-.39.11-1.74.58-1.74.58-.9.33-1.41.55-1.41.55a2.64,2.64,0,0,0-.11.6C27.36,8.14,27.4,8.33,27.54,8.33ZM44.6,41.14c.42,0,.39-.07.62-.46.23-.23.26,0,.45.23s.19.33.58.33,0-.62-.23-1.11c-.19-.23.1-.56.1-.56a3.82,3.82,0,0,1,.36-.43c.19-.2.16-.23-.16-.36s-.42.16-.42.16l-.18.26c-.13.36-.37-.23-.44-.43s-.36-.2-.58-.2-.16.26.26.95c.19.23.1.33-.49,1.14C44.18,41.07,44.47,41.14,44.6,41.14ZM32.41,5.91c.13,0,.3.37.3.37s.12.49.25,1.06c.16.72.33,1.61.4,2a.48.48,0,0,1,0,.34c-.06.11-.2.16-.19.33s.28.13.28.13l.45-.12a21.63,21.63,0,0,1,2.38-.56c.54,0,.49-.29.49-.29s0-.15,0-.43c-.17-.58-.39,0-.59.2a3.1,3.1,0,0,1-1.2.35c-.53.15-.57-.18-.57-.18A10.89,10.89,0,0,1,34.15,8c-.08-.55.23-.61.23-.61a3.6,3.6,0,0,1,.55-.11.55.55,0,0,1,.53.14.19.19,0,0,0,.27,0c.13-.15,0-.33-.06-.76s-.33-.16-.45,0-.46.24-.93.29-.36-.18-.36-.18a2.39,2.39,0,0,1-.19-.94c0-.41.41-.43.41-.43s.56-.11.85-.15a1,1,0,0,1,.66.09c.11.09.13.15.28.18s.13-.23.09-.4c-.09-.42-.36-.33-.65-.28a20.7,20.7,0,0,0-3,.65C32,5.69,32.27,5.84,32.41,5.91Zm14.36,42c-.26,0-.29,0-.45.33-.19.52-.32.91-.55.59-.39-.85-.32-.88-.32-.88a.4.4,0,0,0-.39-.2c-.26,0-.32,0-.26.33a13.12,13.12,0,0,1,.61,1.83.47.47,0,0,0,.45.29.36.36,0,0,0,.45-.33c.58-1.41.68-1.73.68-1.73S47,47.91,46.77,47.87Zm11-36.33-.39.59s-1.13,0,0,.52c.44.44.94.41.55-.18l.13-.34.89-1.62s.44-.78.49.2A33.51,33.51,0,0,0,60.2,14c.15.29.39.74.78.2.14-.24.24-.46.37-.68.47-.81.87-1.47,1.16-1.92a5.27,5.27,0,0,1,.5-.69c.47-.07.89-.2.16-.54s-.89-.54-.68.15c-.44.87-1.13,2-1.13,2s-.4.39-.45-.2c-.39-2.16-.65-3.24-.65-3.24s0-.35-.58-.7-1-.21-.55.33A15.37,15.37,0,0,1,57.77,11.54Zm-33.69-.4a2,2,0,0,0,1.45,0c.33-.09.65-.18.93-.28a1,1,0,0,1,.68.21.56.56,0,0,1,.08.77,1.65,1.65,0,0,1-1.64.67c-1.12-.39-.93-.08-.59.41a.59.59,0,0,0,.77.24l1.42-.68a1.35,1.35,0,0,0,.77-.87,1.63,1.63,0,0,0,.05-.79s0-.06-.13-.27a1.41,1.41,0,0,0-1.8-.74,8.69,8.69,0,0,1-1.64.26c-.49-.07-.37-.56-.25-.77a1.81,1.81,0,0,1,.91-.6,1,1,0,0,1,.95,0c.22.1.31.19.46.14s.07-.34-.19-.77-.57,0-.57,0a.71.71,0,0,1-.27.15,3.64,3.64,0,0,0-1.14.38c-.87.38-1,.94-1,1.3A1.16,1.16,0,0,0,24.09,11.14ZM49.71,46.6c.65.13.87-.13,1-.52.13-.69-.49-1-.74-1.31,0-.36.19-.26.58-.07.36-.13.26-.36.07-.56-.84-.56-1.2,0-1.26.3,0,.65.23.78.65,1.21s-.36.36-.36.36c-.13-.26-.29-.3-.49-.13C49,46.2,49.2,46.34,49.71,46.6ZM63.18,14c-.42.56-.92,1.1-.92,1.1-.94.2-.26.47.71,1.06.26.31.34-.39.34-.39L64.55,14c.25-.36.46-.7.65-.95.37-.5.54-.41.54-.41.44-.25.15-.42-.78-1-.63-.69-.45.44-.45.44S63.8,13.16,63.18,14ZM38.33,79.41a4.23,4.23,0,0,1-.41-1.15c-.11-.38-.26-.88-.36-1.31s-.15-.74-.2-.9a.57.57,0,0,0-.63-.39c-.44-.1-.61-.12-.44.25a2.57,2.57,0,0,1-.15.54c-.51.91-1.23,1.94-1.23,1.94a1,1,0,0,1-.49.27c-.24,0-.34.27-.1.29a5,5,0,0,0,.75.14s.68.19.1-.43l.39-.61s0,0,.27,0,.78.07.78.07.44.12.46.44.36.59,0,.81c-.1.07-.17.22.19.25s1.14.15,1.14.15S38.62,79.65,38.33,79.41Zm-1.65-1.69a3.09,3.09,0,0,1-.63-.12.32.32,0,0,1,0-.29c.24-.44.44-.88.63-.44C36.87,77.59,36.9,77.71,36.68,77.71ZM47.84,48.33c-.1.59,0,.69.55,1.34.29.49-.26.36-.26.36-.26,0-.36-.26-.55-.07-.19.36.13.49.62.69s.65.2.87-.33c.23-.85-.18-1-.41-1.24s-.11-.42.15-.29.29.1.42-.1.06-.29-.26-.46A.9.9,0,0,0,47.84,48.33ZM37,4.92a.57.57,0,0,1,.44.42c0,.24.27,2.08.31,2.65a1.33,1.33,0,0,1-.13.85c-.36.23-.08.28.15.28s.57-.07,1.08-.13.08-.24-.16-.44a5.22,5.22,0,0,1-.1-1.13c.11-.56.66-.31.84-.11a18.27,18.27,0,0,0,1.23,1.44c.15.15.66.14,1,.15.09,0,.33,0,.33-.13s-.1-.14-.45-.32a3.63,3.63,0,0,1-1.1-1.22c-.21-.35.11-.48.4-.64a1.34,1.34,0,0,0,.66-1.15C41.23,4.09,40,4.28,39.3,4.31c-.47,0-1.54.2-1.94.25s-.39,0-.41.18S37,4.92,37,4.92Zm1.78-.1c.89-.1,1.59-.33,1.73.69,0,.29,0,.69-.83,1.1l-1,.06s-.21,0-.19-.28c0-.7-.1-1-.1-1l0,0S38.23,4.87,38.81,4.82ZM22.31,71.16a2.25,2.25,0,0,0-.8-2.43,2.19,2.19,0,0,0-1.19-.34,2.16,2.16,0,0,0-1.6.81,2.08,2.08,0,0,0,.39,2.58,2.61,2.61,0,0,0,1.36.6A1.85,1.85,0,0,0,22.31,71.16Zm-.58-1.32a2.49,2.49,0,0,1-1.12,1.91c-.39.15-.82.35-1.19-.07s-.51-1,.17-2.06a1.92,1.92,0,0,1,1.24-.81.87.87,0,0,1,.89,1Zm-8.13-7.53a2.19,2.19,0,0,0,.41-.6,2.3,2.3,0,0,0-.15-2A2,2,0,0,0,11,58.9a2.27,2.27,0,0,0-.27,3.24A2.09,2.09,0,0,0,13.59,62.31Zm-2.72-.49A1.36,1.36,0,0,1,11,60.23c.39-.49,1.72-1.47,2.52-.42a1.48,1.48,0,0,1-.36,1.64A1.75,1.75,0,0,1,10.88,61.82Zm29.54,15.3c-.19-.07-.44-.22-.46-.42s.27-.46.66-.46a1.44,1.44,0,0,1,1.14.51c.27.34.39.07.41-.37s-.22-.47-.36-.29a7.49,7.49,0,0,0-1.09-.17,1.29,1.29,0,0,0-1.15.45.93.93,0,0,0-.2.43c0,.91.49,1.15,1.12,1.4.87.27,1,.39,1.07.71s-.15.49-.7.61A2.38,2.38,0,0,1,39.64,79c-.46-.42-.39,0-.36.54,0,.32.12.22.27.22a1,1,0,0,0,.29,0l.41,0a2,2,0,0,0,.7.24c1.14-.1,1.14-.64,1.29-1.08C42.46,77.62,40.83,77.35,40.42,77.12ZM7.67,39.33a2.1,2.1,0,0,0,1.65-1.1A2,2,0,0,0,9.65,37a2,2,0,0,0-.82-2,2.83,2.83,0,0,0-.92-.46,4.45,4.45,0,0,0-1-.07,2.23,2.23,0,0,0-1.77,1.17,2.53,2.53,0,0,0,2.5,3.67Zm-2.26-3a.85.85,0,0,1,.76-.71,2.85,2.85,0,0,1,1.33,0c.51.12,1.66.43,1.71,1.42a.92.92,0,0,1-.6,1c-.31.18-.4.22-1.11.22a2.5,2.5,0,0,1-1.58-.47C5.56,37.38,5.18,37.1,5.42,36.35Zm3.8,8.9c0-.25-.06-.64,0-.84s-.27-.43-.37-.13-.5.29-.5.29l-1.47-.06c-.78,0,0-.59,0-.59l.88-.79A15.21,15.21,0,0,0,9,41.91a1,1,0,0,0,.22-.27,1.47,1.47,0,0,0,0-.57.44.44,0,0,0-.05-.27.37.37,0,0,0-.27-.1L7.07,40.6l-.52,0c-.35,0-.75-.07-1.21-.1,0,0-.07,0-.23-.23s-.35-.26-.41-.09a1.23,1.23,0,0,0,0,.31c0,.25,0,.54,0,.72,0,.44.32.34.32.34s0,0,.14-.11a2.62,2.62,0,0,0,.24-.24s.26,0,1.34,0l.85,0c.44,0,.19.44.19.44s-1.08,1-1.93,1.75c-.54.5-1,.94-1,.94s0,0,0,1c.05.37.2.39.3.32a.45.45,0,0,0,.14-.19l.29-.3H8.74C9.05,45.65,9.18,45.53,9.21,45.25ZM15,62.73a.34.34,0,0,1,.29,0,.85.85,0,0,1,.44.39,1.53,1.53,0,0,1,.32,1.1c-.1.44.19.27.19.27a3.23,3.23,0,0,0,.44-.3c.24-.15-.24-.49-.24-.49l-.22-.51c-.7-1.25-1.5-.78-1.84-.56-.61.42-.44,1.32-.19,1.74.22.66.19.83,0,1.1s-.68.07-.87-.19A2.53,2.53,0,0,1,13,63.59c-.15-.34-.46,0-.78.39s0,.34,0,.34a1.09,1.09,0,0,1,.27.2,3,3,0,0,0,.66,1.33,1.33,1.33,0,0,0,1.7.12,2.19,2.19,0,0,0,0-2.16C14.78,63.27,14.74,62.87,15,62.73Zm29.19-19.4c.39,0,.23.46.23.46l-.1,1.34c0,.33.19.26.49.26s.23-.23.23-.23,0-.52.1-1.47c.07-.29.45-.28.68-.31s.21,0,.27-.21,0-.23-.5-.36a12.14,12.14,0,0,0-1.63,0c-.19,0-.32.07-.32.23S43.76,43.36,44.15,43.33ZM19,67.83c0,.27.27.12.27.12a4,4,0,0,0,.19-.59c.07-.25,0-.25-.22-.47A9.39,9.39,0,0,1,18.4,66c-.25-.28-.47-.62-.78-1s-.39-.12-1,0,.17.32.17.32l.36,0,.41.47c0,.1.11.1,0,.32s-.87.94-1.36,1.44c-.21.21-.38.35-.38.35-.8-.07-.37.27-.37.27a3.19,3.19,0,0,0,.78.81c.27.2.29.1.29-.32,0,0,.12-.17.51-.61a5.65,5.65,0,0,1,1.36-1.2C18.93,66.82,19.08,67.24,19,67.83Zm7.28,7.55c-.53,0-.39.66-.39.66l0,.15s-.36.2-.29.34.36.12.75,0,.44-.29.46-.61C26.85,75.38,26.51,75.41,26.31,75.38ZM10.68,22.21a4.08,4.08,0,0,1,.6.34l1.18.81,1.08.74s.19.16.19.25,0,.46.25.27c.32-.48.77-1.21.77-1.21,0-.24-.39,0-.39,0a3.41,3.41,0,0,1-1.26-.83s-.19-.15.06-.6A5.9,5.9,0,0,1,13.8,21a.39.39,0,0,1,.36-.2.74.74,0,0,1,.28.11,3.15,3.15,0,0,1,.66.5c.2.18.39.35.35.45-.09.65.21.18.28.08.78-1,.8-1,.8-1s.17-.36-.41-.11c-.1-.07-.27-.16-.47-.32-.4-.3-.93-.74-1.37-1.11s-.93-.83-.93-.83a.59.59,0,0,1-.07-.34c0-.29-.3-.2-.37-.13-.49.54-1.34,1.36-.36,1.26a1.12,1.12,0,0,1,.2.07c.76.53,1,.94.86,1.07a3.06,3.06,0,0,1-.47.67c-.29.4-.41.61-.41.61a.4.4,0,0,1-.58,0l-.18-.1c-.7-.38-.73-.61-.73-.61,0-.46-.37-.24-.42,0C10.32,21.94,9.76,22.46,10.68,22.21ZM6.29,32.66a2,2,0,0,1,.35,0c.39.08,1,.24,1.65.4a5.16,5.16,0,0,1,1.72.61c.15.69.29.2.49-.78s-.34-.29-.34-.29A3,3,0,0,1,9,32.31c-.53-.34,0-.78.29-.88l.55-.17c.27-.08.58-.2.88-.28s.61-.36.86-1.14c.21-.56,0-.47-.21-.33a.47.47,0,0,0-.13.18c-.34.34-.58.43-1.51.64-.48.16-.5.2-.6-.29a1.65,1.65,0,0,0-.2-.7,1,1,0,0,0-.77-.47,1.43,1.43,0,0,0-1.51,1.08c-.08.24-.22.59-.43,1.17s-.28.95-.46,1.51C5.65,33.35,6.29,32.66,6.29,32.66Zm.34-1.6c.37-.89.35-1.39,1.13-1.39a1,1,0,0,1,.64.44,1.37,1.37,0,0,1,.23.76c-.19,1.08-.37,1.23-.68,1.13-.68-.15-1.15-.3-1.15-.3S6.43,31.64,6.63,31.06ZM19.3,12.46s.15,0,.17.13c.08.3.3,1,.46,1.78.23,1.06.38,2.15.38,2.15-.23.42-.07.5.18.38a2,2,0,0,0,.46-.39,1.76,1.76,0,0,0,.14-.13c.17-.23,0-.34-.2-.26s-.24-.11-.34-.51a.7.7,0,0,1,.08-.6,11.2,11.2,0,0,0,1.21-1,.66.66,0,0,1,.31-.09c.19,0,.38.19.82.51-.11.59.06.58.46.27a11.43,11.43,0,0,0,1-.84c.15-.27-.17-.24-.33-.24a.29.29,0,0,1-.23-.07s-.47-.24-1.1-.6-1.4-.85-2.05-1.26a2,2,0,0,0-.45-.25.42.42,0,0,0-.33.05,4.29,4.29,0,0,0-.68.54C18.79,12.38,19.3,12.46,19.3,12.46Zm1.09.29a7.45,7.45,0,0,0,.91.55s.39.28.16.47l-.74.69a.29.29,0,0,1-.45-.2c-.13-.79-.26-1.37-.26-1.37S19.91,12.45,20.39,12.74ZM14,17.41a1,1,0,0,1,.41,0l1,.88c.45.39,1.37,1.32,1.37,1.32a.33.33,0,0,1,.08.29c0,.23-.1.37,0,.43s.19.08.32-.08c.52-.6,1.83-2,1.83-2l.65-.64a.64.64,0,0,0-.12-.49c-.21-.28-.31-.43-.51-.37s-.11.09-.06.45,0,.5-.15.66c-.25.33-.86,1-.86,1a.36.36,0,0,1-.4.07,9.88,9.88,0,0,1-.93-.9s-.15-.2.1-.46l.42-.46s.07-.07.28-.07.43,0,.32-.21a1,1,0,0,0-.62-.55c-.11,0-.23,0-.19.25s0,.27-.09.34l-.47.44s-.26.18-.42.08c-.37-.27-.59-.39-.71-.64a.53.53,0,0,1,0-.56c.21-.26.71-.93,1-1a1.64,1.64,0,0,1,.84,0c.19,0,.36-.11.19-.3s-.53-.46-.79-.37a.59.59,0,0,0-.36.18c-.31.26-1.51,1.52-1.51,1.52a4.22,4.22,0,0,1-.76.87C13.8,17.13,13.67,17.41,14,17.41ZM34.06,76c.1-.22.07-.27.41-.47s-.1-.34-.49-.42-.53,0-.53,0-.53.54-1.36,1.42c-.53.54-.65-.07-.65-.07s-.17-.76-.39-1.79c0-.54-.27-.64-.92-1s-.36.17-.24.27.12.17.1.47a18.89,18.89,0,0,1-.82,2.28.28.28,0,0,1-.22.22c-.56,0-.22.27-.22.27l.7.27c.32.22.44-.3.12-.32,0,0,.17-.64.49-1.55.32-.32.34-.29.41.12s.12.56.2,1.06l.14.93c.24.42.31.32.49.15s1-1,1.65-1.64c.29-.19.24.12.24.12s0,0-.36,1.28l-.22.49c-.36.15-.15.32-.15.32a8.24,8.24,0,0,0,.9.24c.36.07.27-.1,0-.34,0,0,0-.21.12-.51C33.67,77.27,34,76.33,34.06,76ZM8.41,27.43a.66.66,0,0,1-.09-.67,4,4,0,0,1,.28-.6A.75.75,0,0,1,8.7,26s.07-.12.43,0l1,.55c.74.43,1.72,1,1.72,1,.22.75.4.24.4.24a10.72,10.72,0,0,1,.51-1.08c.3-.41,0-.57-.25-.33a.48.48,0,0,1-.45,0l-1.31-.79a8,8,0,0,1-1.17-.73c-.31-.12-.19-.33-.19-.33l.19-.35a1.13,1.13,0,0,1,.42-.43c.08-.07.13,0,.36-.07s.34-.11.36-.19,0-.11-.25-.24c-.82-.36-.92.12-.92.12a4.76,4.76,0,0,0-.73,1.14c-.32.58-.68,1.27-1,1.85s-.25.79,0,1.18C8.35,28,8.55,27.67,8.41,27.43Zm18.42,45-.41-.29c-.53-.37-.36.12-.36.12l.1.32-.58,1.13c-.32.52-.56-.15-.56-.15s0-.07-.29-1.37c-.24-1-.29-1.18-.8-1.5s-.34.17-.34.17l0,.42-1.34,2.1c-.73,0-.36.25-.36.25s0,0,.58.42c.32.22.19-.15.12-.44,0,0,.39-.61.8-1.4.1-.27.41-.32.49,0s.36,1.89.65,2.94c.36.69.61.25,1-.24l1-1.89a1.76,1.76,0,0,1,.29-.27C27,72.51,26.82,72.39,26.82,72.39ZM10.73,57.45c0-.15,0-.2.19-.12a.82.82,0,0,0,.8,0,1.29,1.29,0,0,0,0-1.47s-.27-.47-.61-1.2c-.17-.64-.36-.39-.36-.25s0,.17-.24.32c-.46.27-2.33,1-2.33,1H7.89c-.41-.32-.32,0-.17.52.15.34.51,1.05,1,2a1.22,1.22,0,0,0,1.36.42A1.22,1.22,0,0,0,10.73,57.45Zm-.87.29a.89.89,0,0,1-1.21-.42c-.27-.46-.29-.56,0-.69l.63-.28a1.88,1.88,0,0,1,.39-.18c.22,0,.41-.07.56.47S10.22,57.58,9.86,57.75Zm.56-1.91.58-.22s.36-.12.44.37.1.59-.15.71a.62.62,0,0,1-.83-.17C10.22,56.16,10.24,56,10.41,55.84ZM53.86,76.9s0-.17-.14.39a.82.82,0,0,1-1.38.24,1.82,1.82,0,0,1-.44-2.43c.36-.52,1.17-.12,1.53.1s.31-.12.31-.12l-.24-.73c-.29-.24-.51.22-.51.22h-.63a1,1,0,0,0-.92.25A2.18,2.18,0,0,0,51,77.3a1.77,1.77,0,0,0,2,1c.92-.15,1-.66,1.29-1.23C54.08,76.27,53.86,76.9,53.86,76.9Zm5-1.42a.32.32,0,0,1-.34-.22A10.8,10.8,0,0,1,57.8,74a12.47,12.47,0,0,1-.44-1.22c.12-.46-.19-.32-.78,0s-.24.39-.07.42l.1.1a4.22,4.22,0,0,1,.32.64c.22.47.07.49.07.49a7.56,7.56,0,0,0-.85.34c-.36.22-.44,0-.44,0A5,5,0,0,1,55.3,74c.17-.88-.24-.42-.87-.17s-.24.3-.1.32a.48.48,0,0,1,.24.12l.95,2.53,0,.22c-.27.3-.07.44.19.32a4.05,4.05,0,0,1,.9-.37c.31-.15.19-.42-.07-.44a.23.23,0,0,1-.22-.17s-.17-.32-.34-.73a.32.32,0,0,1,.17-.42l.75-.39c.44-.12.44,0,.7.3s.41.44.34.91.29.24.29.24l.56-.32C59.06,75.7,59,75.56,58.86,75.48Zm2.26-4.78c.36-.61-.19-.32-.19-.32s0,0-.51.32-.17.32.15.39.63.91,1.12,1.62a1.18,1.18,0,0,1,0,1.25c-.51.42-.7.3-1.24-.15a8.59,8.59,0,0,1-1.07-1.89c.27-.81-.17-.46-.73,0-.8.2-.49.44-.36.47s.17.07.46.42.51,1,.83,1.5a1.71,1.71,0,0,0,.19.16c.65.56,1.26.33,1.9,0,1-.66.58-1.5.36-2A18,18,0,0,1,61.12,70.7Zm3.11-.54s-.41,0-1.12,0-.58-.27-.49-.59c.19-.56.8-.52,1.46-.44.36,0,.17-.25-.07-.49-.32-.44-.44-.15-.49,0,0,0,0,.07-.49.22a1.25,1.25,0,0,0-.74.26,1.4,1.4,0,0,0-.41,1.23,1.06,1.06,0,0,0,.27.51,1,1,0,0,0,.8.2c.24,0,.87-.1,1.7-.15.68.3.49.47.15.91a1.65,1.65,0,0,1-.95.37,1.34,1.34,0,0,0-.41-.12c-.29-.24-.34.15-.34.15l.36.56c.22.27.39.15.56-.15,0,0,.07,0,.78-.39a1.5,1.5,0,0,0,.85-1.25C65.66,70.16,64.86,70.06,64.23,70.16ZM69,68.07c-.36-.34-.53-.59-.44,0a3.17,3.17,0,0,0,0,.47,7.15,7.15,0,0,1-.87.79s-.15.22-.27,0l-.17-.15a3.44,3.44,0,0,1-.59-.66s-.17-.22.1-.49.29-.29.53-.27.22-.1,0-.32-.51-.47-.56-.07a1.19,1.19,0,0,1-.41.44c-.12.12-.32,0-.51-.12s-.39-.37,0-.81.7-.76,1.09-.59.51.12.24-.22-.36-.47-.66-.32c-.51.44-1.67,1.65-1.67,1.65a1.63,1.63,0,0,0-.3.24c-.14.15-.16.32.47.32a12.71,12.71,0,0,1,1.63,1.94.55.55,0,0,1,.12.37c0,.29.15.39.49,0,.66-.66,1.65-1.57,1.82-1.82S69.21,68.27,69,68.07Zm-1.66-6.4c6.46-8.83,6.46-15.6,6.6-17.9A33,33,0,0,0,68.23,24.1a31.19,31.19,0,0,0-19.68-13,28.16,28.16,0,0,0-6.84-.64,31.36,31.36,0,0,0-11.09,2.29A32.17,32.17,0,0,0,24.47,16a25.47,25.47,0,0,0-5.6,5,32.44,32.44,0,0,0-7.23,13.89,31.8,31.8,0,0,0-.87,7.55,34.42,34.42,0,0,0,8.16,20.9,38.58,38.58,0,0,0,5.56,4.95,30.43,30.43,0,0,0,18.35,5.91,36.26,36.26,0,0,0,4.87-.52A31.15,31.15,0,0,0,67.3,61.67ZM24.71,68c-2.86-2.11-8.74-6.42-12.28-17C11.7,48,9.37,42.4,13.55,30.13A30,30,0,0,1,24.4,16.55,30.6,30.6,0,0,1,42.72,10.9s14.71-.32,23.69,11.55c.75.85,6.18,6.8,7,17.81.07,1,.06,2.13,0,3.26,0,2.5-.2,9.67-7.38,19C63.79,65,58.55,71.41,46.61,73.42A29.32,29.32,0,0,1,24.71,68Zm38.62-9.1a.71.71,0,0,0-.49,1.1c.15.17,0,.27,0,.32s-.18.2-.2.56c0,.76.32.86.61.86s.34-.07.56-.34a1.16,1.16,0,0,0,0-1.42C64,59.2,63.72,58.71,63.33,58.85Zm.07.34a.36.36,0,0,1,0,.69s-.29,0-.29-.27A.4.4,0,0,1,63.41,59.2Zm-.07,2.11a.4.4,0,0,1-.36-.49.58.58,0,0,1,.36-.49.36.36,0,0,1,.39.42C63.62,61.21,63.5,61.33,63.33,61.3Zm4.38-3.2A33.44,33.44,0,0,0,72.12,44c0-1.28.05-2.49,0-3.63a30.62,30.62,0,0,0-2-9.32,30.24,30.24,0,0,0-27.94-19,30.46,30.46,0,0,0-12.4,2.81A31.24,31.24,0,0,0,18,24.71a31.29,31.29,0,0,0-5.51,16,30.17,30.17,0,0,0,.22,5.62c2.09,11.38,7.19,15.84,9.61,18.3a38.77,38.77,0,0,0,4.84,3.5,32.37,32.37,0,0,0,5.22,2.5A31.72,31.72,0,0,0,36.76,72a23,23,0,0,0,6.5.54c13.06-1,19.35-8.24,20.95-9.86A26.28,26.28,0,0,0,67.71,58.11Zm-2.15,2.13c-.19.2-.31,0-.27-.23s.16-2.32.32-3.07A1.81,1.81,0,0,0,65,55.1l-.07-.16s.78-.52.91-.36l1.63,2.75C67.18,58,65.65,60,65.56,60.23Zm.66-6.43A7.12,7.12,0,0,1,62.85,55c-.27,0-.39.15-.24-.17.34-.66.36-.93.78-1.18a19.13,19.13,0,0,1,2.79-1.47c.58-.27.56-.54.12-.37a6,6,0,0,1-1.19.49,3.68,3.68,0,0,0-1.38.59l-.17,0s.49-.7,0-1.2c-.15-.22.15-.24.39-.49.49-.32.9-.83,4.39-1.2a3.21,3.21,0,0,0,.68-.1c.22-.07.36,0,.24.17C69,50.68,68.7,51.91,66.22,53.8Zm-8.84,5c-.12-.19-.19-.22,0-.46.41-.34,2.09-1.86,2.35-2.08s.19-.44-.15-.27c-.49.47-.75.51-1,.88a9.17,9.17,0,0,1-2.11,1.35s-.22.17-.22-.17c.07-.74.12-.91.27-1.13s.22-.39.63-.39a6.78,6.78,0,0,0,3.69-2.23c.34-.69.61-1.18.68-1.37s0-.24.27-.37a7,7,0,0,1,1-.42c.29-.07.68-.12.41.61a22.62,22.62,0,0,1-2,3.9,7,7,0,0,1-2.91,2.73c-.66.25-.75.31-.75,0S57.63,58.8,57.38,58.75Zm-3.59,3.77a16.3,16.3,0,0,1-1.36,1c-.26.26-.47.47-.68.66a3.82,3.82,0,0,0-.58.55,10,10,0,0,1-1.23,1.18s-.61.49-.42-.33a6.08,6.08,0,0,1,.87-2.16,9.51,9.51,0,0,1,3.5-3c2-1,2.65-1.37,2.65-1.37s.71-.23.49.39a13.59,13.59,0,0,1-1.84,4A19.39,19.39,0,0,1,53.92,65a5.56,5.56,0,0,1-1.36,1c-.94.39-1.52.46-1.78.13-.1-.29.39-.82,1-1.47,1-.85,1.91-1.67,2.2-2S54.21,62.23,53.79,62.52ZM47.45,65a11.74,11.74,0,0,1-2,2.19l-.4.41s-.49.24-.42-.34a8.26,8.26,0,0,1,1.26-2.84,36.09,36.09,0,0,0,2.69-2.58,5,5,0,0,0,.61-.62c.19-.26.52-.13.52.26a7,7,0,0,1,0,2c-.32,1.31-.19,2.37-2.07,3.81-1.39.88-1.55.9-1.84.9s-.42,0,.13-.59c.91-1.21,1.42-1.73,1.52-2a2.25,2.25,0,0,1,.32-.69S47.93,64.52,47.45,65Zm-4.1-2.12c-.06,1-.11,2.5-.18,3.56,0,.59-.11,1-.11,1.16,0,.29-.12.22-.24.27a6.93,6.93,0,0,1-1.58,0c-.44,0-.44-.07-.44-.34a36.77,36.77,0,0,1-.45-3.88,35.49,35.49,0,0,1-.29-3.6c-.17-1.47-.36-4.22-.36-4.51s.14-.31.33-.29.4.07.4.3.27,5.83.32,6.27c0,1,.22,3.24.22,3.53s.17.64.19.15c0-1-.32-9.71-.32-9.91s0-.34.19-.34.44,0,.44.34c0,.76.24,10.5.24,10.77a4.19,4.19,0,0,0,0,.69s.13.64.23,0c.07-1.13-.07-5.52-.07-5.52s0-5.72,0-6,.1-.34.36-.29.44,0,.41.39S42.5,65,42.5,65.23c0,.52.17.86.24.12,0-.45.08-2.21.13-3.91s.12-3.52.12-3.52l.06-2.28s0-.34.17-.34.46-.07.46.27,0,1.05-.06,2.09C43.52,59.68,43.34,62.49,43.35,62.92Zm-9.2-7.15c.32-.07,2-.35,3.66-.5.24,0,.27,0,.27.15,0,.76,0,1.07-.26,1.07-.53.2-3.58.71-3.83.86,0,0-.36,0-.27-.36l.19-1S33.89,55.82,34.15,55.77Zm.24-.62a33.26,33.26,0,0,0-3.42.54c-.73.13-1.37.28-2,.38-2.15.39-3.46.55-4.84,0a3.41,3.41,0,0,1-2.11-2.77,6.2,6.2,0,0,1,0-1c.13-.65,1.2-2.81,1.65-4,.17-.75.38-1.73.68-2.73a25.81,25.81,0,0,0,.87-3.25,48.55,48.55,0,0,0,.65-5.36c.13-1.31.13-3.14,2.43-3.27a3,3,0,0,1,1.38.39c.8.5,1.63,1.76,1.24,2.49,0,0-.58,2.42-.87,3.34a30.06,30.06,0,0,0-.94,6.54,21.2,21.2,0,0,0,.07,5.53c0,.56.06,1.21-.19,1.41a2.8,2.8,0,0,1-2.75,1.27,2.37,2.37,0,0,1-2.56-2.22,3.51,3.51,0,0,1,.68-1.31,4.27,4.27,0,0,1,1.68-.33c.55,0,1.75.2,1.72.75s0,1.18-.39,1a2.8,2.8,0,0,0-3-.39.69.69,0,0,0,.06,1,2.46,2.46,0,0,0,1.42.52,3.32,3.32,0,0,0,.64-.05,2.55,2.55,0,0,0,1.18-.5c.39-.29.49-.33.65-.19s.52.33.42-.4a2,2,0,0,0-1-1.91,4.38,4.38,0,0,0-2-.44A2.9,2.9,0,0,0,23,51.47a2.67,2.67,0,0,0-.49,1.63c.1.59.32,1.08.65.43,0,0,.32-.82.39-.16a2.42,2.42,0,0,0,2.72,2.09,2.91,2.91,0,0,0,2.82-1.37,2.62,2.62,0,0,0,.48-2.26,17.43,17.43,0,0,1,.23-5.46,47.89,47.89,0,0,1,.65-5.76c.26-1.34.65-3.17.65-3.17s.1-.39.39-.36a26.07,26.07,0,0,0,4.63-.59,37.65,37.65,0,0,1,6.47-.92c1.62,0,2.81-.33,9,1.64,1.26.29,1.75.23,1.78.62a67.63,67.63,0,0,1,.58,9.91,31.28,31.28,0,0,1-.36,3.7c-.1.82-.55,1.93,1.07,3,.84.43,1,.49.71.65-.68.52-.81.88-1.59.85s-2.43-.39-3.24-.46a43,43,0,0,0-8.06-1A69.49,69.49,0,0,0,34.39,55.15Zm-4.8,1.6c-.24,1-.29,1.18-.29,1.18s-.15.44-.34.15a12.8,12.8,0,0,1-.39-1.32l.87-.17S29.62,56.55,29.59,56.74Zm-1.17,1.4c0,.07,0,.07-.19.07l-1.09.07c-.34-.64-.63-1.23-.34-1.15l1-.22c.29-.07.34.07.44.27A2.8,2.8,0,0,1,28.43,58.14Zm-1.94.15a6.12,6.12,0,0,1-1.31,0c-.15,0-.19-.1-.27-.27-.31-.61-.8-1.32-.07-1.08a4.06,4.06,0,0,0,1.09.17c.19,0,.22-.07.32.15S26.65,58.19,26.48,58.29ZM21.85,46.81a16.64,16.64,0,0,0-.53,3.07c0,1.2-.1,1.45-.3,1.42s-.51-1-.65-1.45a5.6,5.6,0,0,1,.58-4.34c.07-.14.11-.28.18-.4A8.53,8.53,0,0,1,23,42.74s.27-.17.27.15c0,1.23-.11,5-.14,5.49a1.88,1.88,0,0,1-.19.73A17.2,17.2,0,0,1,22,51.18c-.17.56-.33.51-.38.33a14.42,14.42,0,0,1,.11-3.18A8.67,8.67,0,0,1,22,47S22.14,46.37,21.85,46.81Zm-1-7.95a8.86,8.86,0,0,1-.37,1.84,8.6,8.6,0,0,1-.83,2s-.34.52-.58.07-.22-.56-.12-2.21a10.57,10.57,0,0,1,.84-3.19,11.33,11.33,0,0,0,.88-2.23c.19-.61.32-1,.59-.29a11.32,11.32,0,0,0,.32,1.67,7.74,7.74,0,0,1,.29,4.12,4.79,4.79,0,0,1-1.37,2.83c-.32.22-.4.28-.49-.12A23.83,23.83,0,0,0,20.88,40C20.9,39,20.92,38.5,20.83,38.86Zm-3.42,4.93c.17.32.51.94.81,1.54.22.44.4.88.57,1.18.44.74.36.76.36.76s0,.3-.2.23a1.63,1.63,0,0,1-1.16-.77,13.57,13.57,0,0,1-1.12-1.59,30.54,30.54,0,0,1-1.9-4.24c-.27-1-.39-1.3.85-.52a8,8,0,0,1,4,4.51,4.6,4.6,0,0,1,.32,1.72c-.07.81-.06.93-.3.61A31,31,0,0,0,17.75,44C17.41,43.38,17.26,43.5,17.41,43.79ZM17,37.37a31.71,31.71,0,0,0,.5,3.26s0,.37-.27.15c-.53-.56-1.19-1.5-1.48-3.95-.17-1.42-.17-2.16.78-4.66.22-.71.32-.93.39-1.18s.39-.42.46.2a7,7,0,0,0,.66,2,17.67,17.67,0,0,1,.93,3.32,6.71,6.71,0,0,1,0,.76c0,.62-.06,1.1-.09,1.49a9.14,9.14,0,0,1-.22,1.33c-.17.54-.27.71-.46.52A10.24,10.24,0,0,1,17.4,38c-.19-1.52-.27-1.72-.32-2.18s-.12-.66-.17-.37a1.48,1.48,0,0,0,0,.42A14.14,14.14,0,0,1,17,37.37Zm6.23,4.93s-.36.1-.22-.12a2.53,2.53,0,0,1,.82-1.45A16.89,16.89,0,0,1,25.17,39c.19-.12.18.07.18.37a27.81,27.81,0,0,1-1.19,6c-.36,1.15-.44,1.32-.53,1a13.33,13.33,0,0,1,.17-3.65C23.81,42.3,23.69,42.08,23.18,42.3ZM38.81,19.85c.19.33.26.43-.16.43s-.91-.36-1-1.21a2.7,2.7,0,0,1,.45-1.8s.23-.16.23.07A5.11,5.11,0,0,0,38.81,19.85ZM44,17a3.59,3.59,0,0,1,.23-.88s.19-.22.23,0a4.5,4.5,0,0,0,.45,1.3,1.89,1.89,0,0,1,.1,1.57c-.26.59-.66,1.09-1.11.83-.23-.2-.35-.3-.06-1A7.62,7.62,0,0,0,44,17Zm1.43,2a3.61,3.61,0,0,0,.42-1.21s.23-.43.36.26a2.54,2.54,0,0,1-.13,1.73c-.42.39-.84.69-1.07.33S45.18,19.55,45.48,19Zm-2.3-1.6a8.93,8.93,0,0,0-.74-1.14,2.69,2.69,0,0,1-.55-.75c-.16-.26-.19-.2-.19.16a2.53,2.53,0,0,1,0,.59,2.63,2.63,0,0,1-.26.72,3.21,3.21,0,0,0-.18,2.39c.06.27-.18.49-.44.2-.36-.56-.78-1.11-.16-2.78a2.83,2.83,0,0,0-.39-2.94.28.28,0,0,1-.08-.11c0-.08,0-.17.21-.09a3.17,3.17,0,0,1,.74.32c1,.57,2.6,1.8,2.6,3.31C43.76,17.62,43.66,18.15,43.18,17.43Zm.13,1.9c-.19.42-1,.83-1.36.52a2.32,2.32,0,0,1-.45-2.35,4.79,4.79,0,0,0,.39-1.27s.13-.33.26,0C42.46,16.77,43.76,18.21,43.31,19.33Zm-3-2.65a4.07,4.07,0,0,0-.23,2.71c0,.65-.16.75-.84.49A1.42,1.42,0,0,1,38.9,19a1.86,1.86,0,0,1,.36-1.24,2.54,2.54,0,0,0,.16-2.32s.07-.36.32-.07S40.52,16.25,40.33,16.68Zm1.55,4a34.14,34.14,0,0,1,5,.14c.71.1.83.09.83.42s0,.51-.47.47c-.7,0-5.92,0-8.83,0H36.48c-.29,0-.53-.08-.57-.34,0,0,0-.41.47-.47A38.26,38.26,0,0,1,41.88,20.67ZM37.32,22.2s3,0,5.57,0c1.75,0,3.28,0,3.49,0s.23.47-.26.47c-.71,0-1,0-1.08.21-.16.46-.56,1.23.38,1.39.29.1.43.38,0,.51l-5,0c-1.11,0-2,0-2,0-.27.07-.45-.4-.06-.53s.82-.13.5-.92-.31-.78-1.15-.78C37.29,22.56,37.22,22.63,37.32,22.2Zm8.42,1.28c0,.23-.06.46-.39.49,0,0-.19,0-.19-.36s.19-.29.42-.39S45.77,23.25,45.73,23.48Zm-7.67.29s-.13-.56.19-.56a.4.4,0,0,1,.42.46C38.68,23.9,38.35,24.33,38.06,23.77Zm.26,1.28h6.76a1,1,0,0,1,.52.07.27.27,0,0,1,0,.43s-.08,0-.14.09a17.22,17.22,0,0,1-3.43.2c-1.36,0-3.24,0-3.72-.06C38.32,25.78,37.61,25.55,38.32,25.06ZM39,26.17c.87.07,5.6,0,5.86,0s.57.27.06.56c-.27,0-1.24.11-2.32.13-1.34,0-2.9,0-3.62,0C38.95,26.85,38.16,26.17,39,26.17Zm.36,1.27c.19,0,4.3-.1,4.82-.1s.71,0,.71.29-.19,7.1-.19,7.29-.36.59-.49.13c-.06-.95.16-5.62.16-6.15s0-.95-.55-1c-.39,0-.61.13-.58.62.06.79,0,2.81,0,3.73,0,1.47-.08,2.52-.07,2.71s-.35.58-.61,0c.1-1.86.13-6.08.13-6.44s-.23-.53-.65-.64-.65.21-.65.54c.07.91.21,6.49.21,6.65s-.31.34-.57,0c0-1.9-.1-6-.13-6.44S40.72,28,40.2,28c-.35,0-.5,0-.5.51s.12,2.38.19,4c.06,1.18.09,2.22.09,2.45.16.56-.4.62-.53.23l-.36-7.59S39.13,27.43,39.32,27.43Zm4.3,1.21s.49,0,.49.42C44,31.42,44,34.6,44,35s-.39.36-.55.13c-.06-1.7.1-6.18.1-6.18S43.47,28.64,43.63,28.64Zm-1.17.62c-.1,1.5-.16,5.27-.16,5.59s-.14.6-.53.27c0-1.1-.08-4.71-.09-5.84a3,3,0,0,1,0-.34s0-.33.28-.33C42,28.61,42.5,28.48,42.46,29.27Zm-1.65,5.89c0,.2-.32.33-.55.13-.1-1.57-.31-6.41-.31-6.41a.33.33,0,0,1,.27-.23c.23,0,.29.2.32.49S40.81,35,40.81,35.15ZM60.72,51.6a2.39,2.39,0,0,1-.49,2.62c-.58.79-1.75,1.57-4.14,1.7a3.85,3.85,0,0,1,0-.88c1,0,3.27.16,3.66-2.16,0-.43.1-.56.49-.2.16.13.45.2.29-.59a2.86,2.86,0,0,0-3.08-2.32A3.08,3.08,0,0,0,54.62,51a2.7,2.7,0,0,0-.49,1.67c.1.33.21.75.86-.1.13-.3.31-.07.31.13s0,1,.66.34a9.43,9.43,0,0,0,2.14,0c.65-.16,1-.6.89-1s-.08-.67-1.12-.67c-.68.13-.94.16-1.26.55s-1.07,1.13-1.07.77c-.1-1.31-.13-1.37.26-1.67a2.79,2.79,0,0,1,1.75-.64c1-.1,1.57-.08,1.83,1.19a1.45,1.45,0,0,1-.66,1.86,2.63,2.63,0,0,1-2.27.59c-1,0-2.75.06-2.72-1.64,0-1,.49-2.09.52-2.88a51.54,51.54,0,0,0,.13-6.31,36.94,36.94,0,0,0-1.1-6.77,2.59,2.59,0,0,1,.58-1.63,2.51,2.51,0,0,1,2-1c1,0,2.33.56,2.33,1.34a87.66,87.66,0,0,0,.84,11A20.62,20.62,0,0,0,60.72,51.6Zm-1.12-7.17c.32.57.46.66.41,1-.07.61-.12,1-.27,1a8.73,8.73,0,0,1-.32-1.33C59.38,44.43,59.35,44,59.59,44.43Zm1.21-1.94c.56-.1.63.15,1,.83a11.08,11.08,0,0,1,1.38,3.92,6.52,6.52,0,0,1-1.12,4.61.37.37,0,0,1-.53.1,3.24,3.24,0,0,1-.19-.66,1,1,0,0,1,.15-.71c.17-.17.12-.51.15-1.27a8.58,8.58,0,0,0,.12-2.72c0-.71-.17,0-.17,0a16.91,16.91,0,0,1-.51,3.48c0,.27-.17.27-.34,0-.1-.49-.58-1.25-.68-1.69-.1-.2-.1-.25-.07-.91a29.34,29.34,0,0,1,.63-3.7C60.66,43.21,60.64,42.59,60.81,42.49Zm6.29,3.75a9.85,9.85,0,0,1-1.36,1.15,11.38,11.38,0,0,0-1.85,1.42s-.29.15-.29-.15a3.1,3.1,0,0,1,.46-2,7.19,7.19,0,0,1,2.67-2.08A24,24,0,0,0,69.25,43c.32-.32.51-.52.63-.17a1.33,1.33,0,0,1,0,.93,10.69,10.69,0,0,1-2.86,5.37,7.34,7.34,0,0,1-3,1.47c-.46,0-.73,0-.36-.64a5.12,5.12,0,0,1,1.87-1.79,6.23,6.23,0,0,0,1.58-1.72C67.43,46.15,67.24,45.93,67.09,46.24Zm2.23-5a6.07,6.07,0,0,1-1.84,2.62c-.78.47-.92.64-1.19.42s0-.39.19-.66a10.8,10.8,0,0,0,1.63-2.8c.29-.76.49-1,.1-.66s-.51.76-.73,1.05a8.31,8.31,0,0,1-1.43,2.16s-.1.37-.27,0a5.74,5.74,0,0,1,0-2.13A4.74,4.74,0,0,1,67.34,39c1.07-1,2-1.86,2.18-2.13s.49-.52.49,0A10.42,10.42,0,0,1,69.33,41.22Zm-2.06-3c-.27.49-.63,1-.92.88s-.19-.54-.17-.91a5.09,5.09,0,0,0,.36-1.6,13.74,13.74,0,0,0-.19-2.26c-.1-.39-.22-.27-.22-.07a18.69,18.69,0,0,1-.19,3.19c-.27,1.2-.29,1.32-.41,1.42s-.24.15-.41-.12a4.59,4.59,0,0,1-.44-2.87,12.42,12.42,0,0,1,.46-2.6,10.51,10.51,0,0,1,1.38-2.92s.19-.37.44.07a1.53,1.53,0,0,1,.15.71,19.25,19.25,0,0,0,.39,2.3A8.54,8.54,0,0,1,67.27,38.2Zm-1.9,3c0,2.65-.13,2.88-.39,3.4-.39.78-.63,1.27-.89,1a3.51,3.51,0,0,1,0-1.41,11.3,11.3,0,0,0-.14-2.52c-.19-1.41-.23-1.54-.23-1.54s-.11-.56-.15.1c.1,1.24.27,3.47.2,4.06a2.41,2.41,0,0,1-.28.82s-.16.46-.45,0a6.41,6.41,0,0,1-1.08-2.75c0-1.37.52-4.87.55-5.4,0-.85.11-.93.27-1.06s.5,0,.79.54A9,9,0,0,1,65.36,41.2ZM53.44,58.84c-.36.59-1.37,2.44-1.37,2.44a3.49,3.49,0,0,1-.53.43c-.62.49-.71.23-.58-.33a13.85,13.85,0,0,1,.42-1.54,9.71,9.71,0,0,1,2.49-3.17,7.47,7.47,0,0,0,1.46-1.11c.36-.36.36-.23.39.26A8.92,8.92,0,0,1,55,59.19a3.56,3.56,0,0,1-1.55,1.15c-.63.52-.34-.16-.34-.16s.34-.72.73-1.57C54,58,53.89,58.12,53.44,58.84Zm-4.3-1.69c-1.21-.23-3.27-.75-3.63-.75a.69.69,0,0,1-.32-.49c-.07-.36-.23-.69.16-.69a20,20,0,0,1,3.4.59c.39.13.36.1.42.33S49.46,57.19,49.13,57.16ZM43.69,61c0-.36.13-3.3.19-3.89.06-.36.16-.36.55-.36s3.66.33,4.34.82c1.59.49,2.36.75,2.52.79s.52,0,.29.39a21.34,21.34,0,0,0-1.18,3.08c-.13.69-.18.88-.4.29-.1-1.44,0-2-.55-1.5a14.72,14.72,0,0,0-1.33,1.34.65.65,0,0,1-.55,0s-3-.56-3.59-.59C43.76,61.28,43.66,61.34,43.69,61Zm3.58,1.75a3.32,3.32,0,0,1-.73.67c-.23.13-.32,0-.32-.16a8.82,8.82,0,0,1-.07-1l.94.23S47.46,62.51,47.27,62.74Zm15-6.23c.29,0,.52.13.78.07.13.13.16.13.16.29s.06.69,0,.82a4.18,4.18,0,0,1-.71.46s-.26.1-.26-.13A8.85,8.85,0,0,0,62,56.77.27.27,0,0,1,62.27,56.51ZM63,56s-.52.07-.19-.36a1.73,1.73,0,0,1,.91-.39c.42-.07.91-.07.94.36s.16.79-.1,1c-.74.62-.91.82-.91.39-.1-.92,0-1.15-.32-1.08Zm8.22-8.82a30.25,30.25,0,0,1-1.21,4.66c-.24.54-.15.54-.46.27-.53-.61-.68-.64-.46-.86.24-.54.51-1.1.56-1.3s0-.42-.22-.37a4.35,4.35,0,0,1-1.82.22c-.22-.27-.39-.25-.19-.52a14.8,14.8,0,0,0,2.23-3.78c.12-.17.17-.15.32,0s1.24,1.3,1.24,1.3S71.37,47,71.27,47.23Zm-.71-12.57a1.15,1.15,0,0,1,.39.61,32.91,32.91,0,0,1,.69,5.41c0,.34,0,.29-.17.22-.78-.59-1.31-1.05-1.31-1.05a25.84,25.84,0,0,0,.17-3.07c0-.29-.15-.83-.63-.47-.61.64-1.6,1.62-1.6,1.62s-.32.07-.27-.22a11.12,11.12,0,0,0,0-3.92,4.45,4.45,0,0,0-.18-.64s0-.32.22-.12S70.29,34.43,70.56,34.65ZM16.18,29c.58-1.27,1.07-2.09,1.07-2.09a1.14,1.14,0,0,1,.45-.39c.1,0,2.41-1,4.88-2.06C25.52,23.24,28.68,22,28.68,22l6.93-2.65s1.07-.43.1-.26c-1.39.39-12.27,3.47-12.78,3.5a24.79,24.79,0,0,1-2.62.72c-.36,0-.19-.13,0-.42.39-.49,2.27-2.39,2.27-2.39s.23-.23.39-.23c.81-.13,12.62-2.35,13.14-2.35s.49-.18-.1-.18l-9.42,0s-.74,0,.19-.52c1.23-.69,3-1.6,3-1.6,2.33.29,6.31.79,6.76.88s.61.1,0-.2c-1.07-.33-4.34-1.44-4.34-1.44s-.29-.2.13-.33c.81-.33,1.65-.62,1.65-.62s.23-.13.81.07,2.49,1,2.49,1,.57.36.31,0A10.53,10.53,0,0,0,36,13.86c-.23-.16-.23-.46.1-.42s.87-.23.87-.23a.9.9,0,0,1,.78.26c.39.36,1.26,1.44.65.2-.23-.59-.39-.72.16-.72l3-.26s.52,0,.55.2.1.46.29-.07c.13-.1.13,0,.36,0l.81,0s.32.07.29.36-.19.62.19.26.52-.56.87-.56,1.39.16,1.39.16.45,0,.16.2c-.55.39-1.11.75-1.11.75s-.67.52.33.06c1.17-.46,1.81-.78,1.81-.78H48c.45.07,1,.2,1,.2s.45.1.13.26a22.77,22.77,0,0,1-2.59,1.21c-.55.16-.74.52.26.16s2.88-.88,3.4-1.08a1.59,1.59,0,0,1,.87,0,3.8,3.8,0,0,1,1.26.39c.29.2.36.23,0,.29s-2.17.53-3.4.84c-.54.14-1,.2-1,.24-.81.1-1.17.39.39.13,1.75-.23,6.15-.52,6.15-.52a1,1,0,0,1,.68.13c.42.2,1.84,1,1.84,1s.26.23-.13.23c-.94,0-8.35.1-8.35.1s-1.1.1.32.2c1.84.16,10.2,1,10.2,1a1.86,1.86,0,0,1,.71.23l1.17.95s.36.26-.07.26c-1.65-.13-11.33-1.37-11.33-1.37s-2.17-.33-.26.13c1.59.34,8.21,1.81,11.65,2.6,1.26.29,2.1.53,2.1.53a.55.55,0,0,1,.45.23c.23.26,1.39,1.5,1.39,1.5s.27.27-.08.27c-2-.42-15.39-3.87-15.39-3.87s-1.42-.3-.29.13,17.44,6.15,17.44,6.15a.63.63,0,0,1,.58.33c.13.24.45.74.72,1.26.41.78.8,1.59.8,1.59s.26.33-.06.29-.87-.29-1.85-.7c-4.6-1.94-15.91-6.81-16.18-6.75-.84-.43-1.33-.62-.61-.07.94.59,15.66,9.6,15.66,9.6a.29.29,0,0,1,0,.26,11.17,11.17,0,0,0-1,3.29c0,.2,0,.46-.29.2-1.17-.95-13.4-10.63-13.88-11.05s-1-.59-.62,0S62,37.18,62,37.18a1,1,0,0,1,.19.62c0,.59-.55,3.14-.49,3.92,0,.56,0,.56-.29.29-1.39-1.7-2.4-3.11-2.59-3.3s-.19-.59-.19-1.14c0-1,0-2.19,0-2.49s-.32-1.7-3.37-1.6c0,0-.45-.49-1.15-1.35-1.35-1.67-3.61-4.57-5.36-6.92-.45-.62-.68-.49-.39,0,.58.85,5.34,8.83,5.34,8.83s.19.33,0,.39A2.53,2.53,0,0,0,53,36.62c0,.39,0,.62-.26.1-.41-.84-1.74-3.33-2.84-5.39-.65-1.21-1.19-2.27-1.5-2.75-1-2.06-.94-2-.94-2-.23-.46-.45-.62-.29,0,.36,1.08,3.66,9.52,3.66,9.52s.19.49-.1.49c-1.52-.43-2-.59-2-.59a.49.49,0,0,1-.39-.43c-.55-2.19-1.81-6.67-1.88-7s-.32-.52-.29-.07.91,6.21.91,6.21.29.88-.26.85a11,11,0,0,0-1.65-.36s-.26,0-.26-.36c0-1.9.23-7.68.23-7.68a.92.92,0,0,0,.36-.88c0-.26.06-.46.26-.46s.42-.52.1-1c.16-.49.16-.69,0-.82.16-.62.32-1,.58-1.08s.32,0,.42-.46S47,22,47.29,22s.72.13.72-.59c0-.36.09-.81-1.11-.88-.55-.07-.65-.11-.39-.7A2.92,2.92,0,0,0,46,17.17a4.21,4.21,0,0,0-.32-.36c.06.75,0,1.44-.21,1.08-.39-.72-.78-1-.78-1.86.07-.62.21-.88-.11-.62s-.58,1-.71,1a7.35,7.35,0,0,0-2.43-2.47,3.82,3.82,0,0,0-1.61-.54c-.26,0-.32.16,0,.39.42.39,1.34,1.28.81,2-.65-.52-1.07-.89-1.68-.89,0,0-.29,0,0,.2a1.87,1.87,0,0,1,.29,2.22c-.36.52-.45.85-.58.29s-.06-.65.07-.88-.07-.29-.32-.07a3.32,3.32,0,0,0-1,3.07c.13.39.11.79-.34.79-.61,0-1.49,0-1.42.81.13.36.1.69.78.69.32,0,.52.13.55.36s.13.56.45.59a1.61,1.61,0,0,1,.45,1.21.6.6,0,0,0,0,.59c-.13.36-.29,1.11.23,1.31a.32.32,0,0,1,.16.39,1,1,0,0,0,.42.69,1.19,1.19,0,0,1,.13.69c0,.29.39,7.36.39,7.36s.1.29-.07.36a6.07,6.07,0,0,1-2.26.36,74.52,74.52,0,0,1,.71-7.55c.07-.29.07-.92-.23-.36-.36,1.27-1.88,7.13-1.88,7.55-.16.59-.19.82-.68.92-1.42.2-2.56.39-2.56.39s-.26,0-.13-.43c.74-1.6,3.56-8.8,4.14-10,.26-.43,0-.43-.21,0s-1.54,2.81-2.78,4.93c-.52.89-1,1.71-1.34,2.31s-.57.9-.57.9-.15.59-.5.16c-.61-.79-1.23-1.28-1.49-1.28s-.12-.1.2-.56c.52-.65,4.88-6.83,5.46-7.88.36-.52.36-.69-.16-.26-.3.36-2.26,2.68-3.87,4.47-1.16,1.29-2.12,2.27-2.12,2.27l-2,2.13c-.52.52-1.28,1.18-1.34,1.6-.71.82-2.52,2.84-2.95,3.43-.39.43-.42.26-.42-.13-.19-1.18-.62-2.61-.62-2.91s0-.31.23-.52c.48-.51,2-1.93,3.66-3.53,2.05-2,4.31-4.18,5-4.81,1.68-1.47,3.17-2.91,3.56-3.27s.68-.72-.39,0c-1.29,1-3.63,2.75-3.88,2.94-.87.62-7.15,5.31-7.15,5.31s-.37.31-.87.67c-1.1.78-2.85,2-2.85,2s-.26.26-.32,0c-.52-1.54-.74-2.09-.74-2.09s-.06-.2.23-.39,5.53-3.37,9-5.57c1.32-.85,2.38-1.53,2.8-1.89,2-1.37,3.95-2.62,4.4-2.91s.71-.72.23-.46c-.91.36-10.07,4.83-10.07,4.83-1.29.62-6.47,3.11-7.74,3.47C16.22,29.49,16,29.63,16.18,29Zm-2.85,8.9c.23-1.27.62-3.07.71-3.4s.1-.36.45-.56.84-.52.84-.52.42-.26.29.1a7.64,7.64,0,0,0-.39,3.17c0,.33-.1.33-.26.46s-1.36,1-1.36,1S13.27,38.39,13.34,37.9Zm1.25,10a6.85,6.85,0,0,1-.66.59s-.27.15-.27-.21a30.2,30.2,0,0,1-.61-4,2.52,2.52,0,0,1,0-.65s0-.15.34-.57l1.13-1.15c.23-.23.23-.15.45.21.19.52,1.33,2.88,1.46,3.2s.23.59-.19.49-.47-.16-1.41-1.18c-.23-.29-.55-.07-.55.49a4.22,4.22,0,0,0,.36,2.35C14.71,47.77,14.71,47.73,14.58,47.89Zm0-2.8s0-.27.34.07a2.93,2.93,0,0,0,1.46,1c.92.79,2,1.67,2.43,2a6.25,6.25,0,0,1,1.46,2.77c.17.76.27,1.35-.07,1.1a30.64,30.64,0,0,0-2-2.43,3.47,3.47,0,0,0-1-1.13c-.27-.25-.41-.39-.28,0L19,51.35s.31.33.1.45a2.88,2.88,0,0,1-1.9-.64c-.66-.64-1.38-.93-2.43-4.29A5,5,0,0,1,14.57,45.09Zm4.5,10.84a2.35,2.35,0,0,0-.2,1c0,.52.1.44,0,.64a3.17,3.17,0,0,0-.61.86c-.15.17-.22.22-.34,0a25.26,25.26,0,0,1-2.5-4.56.62.62,0,0,1,.14-.37l.49-.76s0-.25.36,0a5.51,5.51,0,0,1,1.92,2C19.06,55.71,19.11,55.76,19.06,55.93Zm0-.86a18.17,18.17,0,0,0-2.11-2.38c-.7-.66-.79-.86-.45-1A8.24,8.24,0,0,1,21,52.84c.34.24.61.42.61.69a7.65,7.65,0,0,0,.78,1.79,2.84,2.84,0,0,0,.85.93c.32.22.46.29.51.66a7.25,7.25,0,0,1,.1.91c0,.27,0,.39-.15.39s-.07.12-.46-.29a2.6,2.6,0,0,1-.7-1.23,1.78,1.78,0,0,0-1.41-1.77c-.53-.37-.4-.52-1-.84s-.49-.22-.2.12.66.52.4.7c0,0-.42.18-.64.3S19.29,55.42,19,55.08Zm1.39,1.23c.1.66.15,1,.15,1s0,.29-.1.2c-.51-.34-.49-.42-.56-.64-.29-1-.46-1.08-.07-1.32a1.25,1.25,0,0,1,1-.29c.36.07.41.15.41.34s0,.26-.12.29-.53.12-.53.12A.21.21,0,0,0,20.42,56.3Zm.49,0,.68-.2c.22-.29.45-.38.47.06.19.76.38,1.5.4,1.69s0,.2-.19.2c-1-.25-1.14-.27-1.17-.56A2.45,2.45,0,0,1,20.9,56.32Zm-.61,5.06A23.62,23.62,0,0,1,19.17,57a.16.16,0,0,1,.29,0c.12.24,1.17,1.58,5.42,1.6a31.2,31.2,0,0,0,8.54-.9,44.15,44.15,0,0,1,5.89-1.09c.12,0,.14,0,.19.2s.32,3.52.39,4,0,.53-.15.53c-1,.15-3,.56-4.05.59a27.39,27.39,0,0,1-6.12.93c-.72,0-1.43.1-2.11.1a26.31,26.31,0,0,1-5.56-.51C20.76,62.07,20.44,61.89,20.29,61.38Zm15.41,2.48c.14.26.48.77.8,1.29a16.31,16.31,0,0,1,.9,1.65c.41.64.73,1.1.41,1a7.25,7.25,0,0,0-1.36-.64,6.2,6.2,0,0,1-1.53-2.06,10.63,10.63,0,0,1-1-2s-.22-.17.34-.24c.82-.17,1.14-.22,1.53-.32s.44,0,.61.12a11.23,11.23,0,0,1,1.65,1.72,6.74,6.74,0,0,1,1,3c0,.51-.24.69-.58.39a22.26,22.26,0,0,0-1.94-3.17l-.7-.86S35.59,63.61,35.71,63.86Zm1-1.46.84-.16s.26-.1.26.23a7.82,7.82,0,0,1-.07.82s0,.13-.32,0C36.74,62.59,36.61,62.69,36.67,62.39Zm-9.07,2a21.51,21.51,0,0,0-.75,2.16c-.24.44-.22.61-.44.39a26.45,26.45,0,0,1-4.56-3.73s-.19-.24.14-.15a20.2,20.2,0,0,0,4.59.49c.51.13.68.13.8.34S27.77,64.22,27.6,64.4Zm.46-.49s-.36-.25.12-.27,3.81-.29,4-.31a1.35,1.35,0,0,1,1.07-.06,3.93,3.93,0,0,1,1.36,2.5c0,.25-.14.54-.82,0A20.29,20.29,0,0,0,31.39,64c-.44-.22-.31.07,0,.27.36.37,1.77,1.77,1.94,2s.12.37-.19.34a5.5,5.5,0,0,1-3.3-1.18,12.26,12.26,0,0,1-1.33-1.08C28.05,64,28.06,63.9,28.06,63.9Zm6.85,6.75a6.84,6.84,0,0,1-4.38-2.24c-1.12-1.13-1.21-1.35-1.41-1.81,0,0,0-.51.4-.34s1,.55,5.39.87c.92.07,1.34.2,3.33,1.3.32.3.53.64.15.64a9.54,9.54,0,0,1-3.54,0,6.51,6.51,0,0,1-1.31-.26c-.63-.2-.9-.29-.9-.29s-.44,0,0,.29a12.09,12.09,0,0,0,4.54.93c.83-.07,1.34.15,1,.45A6.88,6.88,0,0,1,34.91,70.66Zm5.24.08c-.33.14-1.06.5-1.56.69a3.29,3.29,0,0,1-.46.14s-.08.25-.35-.11-.14-.55.2-.62A8.71,8.71,0,0,0,39.88,70c.34-.1.43-.16.43.11S40.34,70.69,40.15,70.74Zm2.84.77a1.38,1.38,0,0,1-1.07.44,1.19,1.19,0,0,1-1.26-1c0-.61,0-1.13.39-1.25H42.7s.24-.05.36.27A1.39,1.39,0,0,1,43,71.51Zm-2.52-2.35a.31.31,0,0,1-.24-.3c0-.24-.07-.52.24-.52H43c.49,0,.92,0,.85.42s-.15.42-.49.42Zm5.74,2.09c-.12.3-.13.32-.32.31-.37,0-1.58-.79-1.82-.76,0,0-.49-.17-.49-.49s-.1-.54.29-.39,2.22.94,2.22.94A.28.28,0,0,1,46.2,71.25Zm5.29-1.14a8.09,8.09,0,0,1-3.4.36c-.84-.16-1.13-.33-.52-.66a8.33,8.33,0,0,0,3.56-1.14c.45-.23.55-.52,0-.26a17.42,17.42,0,0,1-4.66.95s-.39-.13,0-.72a8.49,8.49,0,0,1,4.24-1.8c.71-.07.81-.23,1.17-.2s2.69-.1,3.56-.1,1-.15.74.36C55.86,67.56,55.64,68.38,51.49,70.11Zm9.06-4.91a43.57,43.57,0,0,1-3.72,2.62c-.49.3-.71.16-.52-.39.39-.82.78-1.7-.1-1.28,0,0-.42.13-.45-.13a10.2,10.2,0,0,0-.39-1.14s0-.26.39-.16a9.61,9.61,0,0,0,4.11-.3c.39-.1.52-.1.55.1C60.43,64.52,60.78,65.07,60.56,65.2Zm-.71-1.26a17.57,17.57,0,0,1-4.3.28c-.29-.1-.29-.26,0-.65a12.61,12.61,0,0,0,1.68-3.3.37.37,0,0,1,.29-.23,12.73,12.73,0,0,0,6.6-2.45c.71-.46.91-.75.91-.36A14.65,14.65,0,0,1,64.57,61C64.25,61.54,63.57,63,59.84,63.95Zm-9,14.41a.75.75,0,0,1-.51-.42L48.57,75.7s-.17-.29-.61-.1-.61.12-.17.69c0,.2,0,.38-.08.55a6.45,6.45,0,0,1-.36,1.24L47,79.16c-.22.17-.41.47.1.39.82-.15,1-.2.56-.44,0,0,0,0-.15-.2l.12-.51a.53.53,0,0,1,.41-.34l.83-.15a.36.36,0,0,1,.36.17c.29.34.46.59.36.74s-.24.42.19.27l.6-.25a2.92,2.92,0,0,1,.54-.15S51.29,78.55,50.81,78.35Zm-2.11-.76-.63.17c-.24,0-.12-.15,0-.79.17-.29.19-.2.61.25C48.86,77.54,48.69,77.59,48.69,77.59Zm22.56-12s0,0,0,0l0,0-.18,0S69.76,64.49,69,63.71c-.34-.59.39-.71.87-.76s.15-.27-.19-.39-.36-.1-.61.1a19.46,19.46,0,0,0-1.43,1.77c-.44.54-.41.51-.17,1.08.34.39.27.15.32-.39,0-.27.07-.32.29-.59s.12-.24.36-.12a12.4,12.4,0,0,1,2,2c0,.39,0,.56.27.39l.85-1C71.66,65.31,71.36,65.5,71.25,65.57ZM61.29,60a.69.69,0,0,0-.65.69.65.65,0,0,0,.39.71.46.46,0,0,0,.36.07c.1.17,0,.44-.17,1-.15.37.07.29.22.22s.12,0,.27-.37A8.59,8.59,0,0,0,62,60.74C62,60,61.58,60,61.29,60Zm.22,1a.33.33,0,0,1-.53-.27c0-.24.1-.39.27-.39C61.24,60.32,61.85,60.15,61.51,61ZM44.83,77.39a6.49,6.49,0,0,1-.92-.49s-.31-.54.29-.61a1.39,1.39,0,0,1,1.21.34c.15.12.39,0,.34-.32s-.19-.42-.34-.32H44.11a1,1,0,0,0-.95.93,1.36,1.36,0,0,0,1.19,1.2c.95.29,1,.39,1,.74s-.56.64-1.12.51a4.25,4.25,0,0,1-.83-.42s-.29-.34-.32.17,0,.86.46.56a3,3,0,0,1,.8,0,1.3,1.3,0,0,0,1.7-1.13C46.12,77.62,45.35,77.64,44.83,77.39ZM73.94,61.62a.75.75,0,0,1-.61-.2c-1.09-.71-1.6-1-1.6-1-.19-.17-.58-.37.1-.83a1.37,1.37,0,0,1,.63-.3c.15-.12.17-.2-.1-.32s-.51-.3-.63,0c-.39.64-1.63,2.55-1.63,2.55s-.24.14,0,.44.46.71.51.1c0-.42,0-.44,0-.44s.24-.69.41-.59l2,1.35a.67.67,0,0,1,.22.39c0,.2.22.29.29,0,.56-1,.63-1.05.63-1.05S74.28,61.35,73.94,61.62ZM70.59,25.11c.42.49.45.23.42-.07s.19-.29.19-.29a2.44,2.44,0,0,1,1.07-.49c.42,0,.42.46.29.82-.1.16-.23.52-.71,1.44-.29.49,0,.95.24,1.54s.29.23.29-.26.47-1.34.73-1.8c.1-.26.32-.16.84.23.74.29.84.13,1.26-.23a1.33,1.33,0,0,0,.45-1.31s-.81-1.77-1.26-2.62-.57-.64-.6,0A25.23,25.23,0,0,1,70.62,24C69.75,23.64,70,24,70.59,25.11ZM73,23.77l1-.59s.39-.29.68.23c.45,1,.87,1.51.1,1.93a1.14,1.14,0,0,1-1.52-.52C72.82,24.16,72.73,24,73,23.77Zm-5.44-3.68c-.42-.13-.55.08-.42.47A15.79,15.79,0,0,1,69.07,23a.87.87,0,0,0,1.13,0c.26-.13.13-.39-.19-.39a2.73,2.73,0,0,1-.49,0,3.38,3.38,0,0,1-1-1.34.42.42,0,0,1,.16-.59,8.18,8.18,0,0,1,.84-.62c.23-.16.32-.1.62.13l.39.56s-.23.75.26.39l.45-.33c.39-.29.13-.39-.19-.33s-.45-.29-.71-.72c-.1-.26.29-.59.62-.85s.45-.06.45-.06l.81,1a.92.92,0,0,1,.26.88c-.13.59.16.36.52,0a.44.44,0,0,0,0-.59s-1.52-2.09-2.1-2.81c-.39-.36-.65.56-.65.56l-1.23,1Zm.92-7.91C57.34,2,42.17,2.34,42.17,2.34A42.84,42.84,0,0,0,22,7.94a35.14,35.14,0,0,0-7.32,5.51A38.78,38.78,0,0,0,3,35.58a36.85,36.85,0,0,0,0,12.9,35.32,35.32,0,0,0,1,3.91c.44,1.44.82,2.52,1.06,3.21.46,1.25,1,2.4,1.44,3.45a34.81,34.81,0,0,0,9.19,12.44,40.59,40.59,0,0,0,25.58,10.4,47.52,47.52,0,0,0,8.22-.66A38.9,38.9,0,0,0,55,79.74a34.4,34.4,0,0,0,6.76-3.06,37.24,37.24,0,0,0,5.75-4,39.62,39.62,0,0,0,7.28-7.95,40.07,40.07,0,0,0,4.06-7.42A39.46,39.46,0,0,0,81.22,34,40,40,0,0,0,68.5,12.18ZM81.42,40.34c0,3.56.45,7.46-2.23,14.81-.53,1.46-1.24,3.06-2,4.81A39.86,39.86,0,0,1,57.09,78.5c-2.48.84-6.51,3-16.46,2.89-2.23-.15-11.51-.2-22.14-8.09A38.23,38.23,0,0,1,4.9,53.73c-1.18-4-3.47-10.46-.63-21.8.2-.8.45-1.63.7-2.48a39,39,0,0,1,1.47-3.76A38.31,38.31,0,0,1,23.84,7.37c1.75-.83,7.62-4.41,18.5-4.56a39.37,39.37,0,0,1,30.05,14A40,40,0,0,1,81.42,40.34ZM69.26,16.09a.79.79,0,0,1-.26.29,19.58,19.58,0,0,1-2.14.92s-.42.13-.32-.29c.45-1.57.78-2.52.78-2.52l.19-.2c.32,0,.42-.26.06-.43-.87-.75-.94-.78-.94-.78s-.39-.23-.32.23,0,.39,0,.39l-1,3.5c-.26.59-.36.79-.1,1.08s.62.21,1,0c1.2-.52,3.24-1.46,3.24-1.46.49,0,1,0,.61-.43S69.36,15.56,69.26,16.09ZM34.6,46c.26-.82.39-1.47.55-2.16.1-.2,0-.33-.32-.29s-.29.16-.36.43-.13.75-.13.75c-.32.52-.39.1-.39.1s-.32-.52-.45-.78-.26-.26-.49-.1a.37.37,0,0,0-.13.43s.36.65,1,1.8C34,46.5,34.41,46.34,34.6,46Zm44.92-5.89-.13.31s-.23.2-1.33,1c-.28.2-.61.4-1,.67H75.7c-.52-.62-.52,0-.52,0s0,.16,0,1.34c0,.59.26.46.42.23s.32-.23.32-.23a6.19,6.19,0,0,1,.94,0,1,1,0,0,1,.62.23l1.78,1.63c.16,1,.53.36.53.36a3.83,3.83,0,0,0,.08-.92c0-.31-.13-.36-.39-.2s-.91-.65-1.39-1.14c-.36-.33.1-.69.1-.69l1.2-.92c.58.1.45-.23.45-.23s0-.27,0-.62,0-.46,0-.69C79.85,39.66,79.52,40.12,79.52,40.12ZM76.41,56.91a1.06,1.06,0,0,0-.36-.29,1.64,1.64,0,0,0-.77-.26,1,1,0,0,0-.61.19c-.44.25-1.12,1-1.5.91s-.56-.27-.07-.81a1.36,1.36,0,0,1,1-.61c.41-.1.68-.12.17-.44s-.7-.42-.61.12c-.22.2-.41.34-.41.34s-1.14.83-.73,1.91a.79.79,0,0,0,1,.42,2.86,2.86,0,0,0,.95-.61l.47-.3c.26-.16.57-.35.79-.24a.8.8,0,0,1,0,1.2,1.88,1.88,0,0,1-.82.42c-.41,0-.67.2-.26.44s.74.54.79,0a.69.69,0,0,1,.44-.59,1.43,1.43,0,0,0,.66-1.45A.92.92,0,0,0,76.41,56.91Zm-1.62-23-.32,0C74,33.26,74,34,74,34a4,4,0,0,1,.36,1.27c0,.39.36.33.42,0a.41.41,0,0,1,.42-.31s2-.64,2.85-.87c.19-.07.45-.26.71,0,.36.39.42,0,.39-.29a3.47,3.47,0,0,0-.36-1.24c-.32-.82-.36-.11-.55.11a17.39,17.39,0,0,1-1.86.71C75.53,33.63,74.8,33.89,74.8,33.89Zm3.63,1.23c-.45,0-.37.29-.06.38s.62.24.65.8-.36.52-.36.52l-3.17.56c-.29,0-.26-.26-.26-.26-.52-.46-.45.16-.45.16s.1.49.23,1.41c0,.62.29.42.45.07,0-.2.39-.33.39-.33L78.68,38c.32,0,.49-.07.58.33s0,.46-.42.95.1.46.74.26c.16-.06.23-.13.23-.39s-.26-2.48-.49-3.73C79.26,34.86,79,35,78.42,35.12ZM75,30.7a.7.7,0,0,1-.66.82c-.29,0-.66-.29-.86-.82a1.91,1.91,0,0,1,.19-1.57c.45-.51-.13-.49-.13-.49l-.49.23c-.36.29-.26.52-.19.92a7,7,0,0,0,.52,1.73,1.44,1.44,0,0,0,2.17.46c.81-.46.55-1.83.52-2.58s.29-.91.42-1c.52,0,.87.65,1,1.27a1.28,1.28,0,0,1-.26,1.08c-.45.46-.08.65.58.29.42-.07.19-.42,0-.69a3.59,3.59,0,0,0-.26-1.6c-.17-.74-.52-1-.86-1.08a2.42,2.42,0,0,0-.66-.1C74.7,28,74.86,29.46,75,30.7Zm8.19,1A44.82,44.82,0,0,0,70.06,10.27,42.2,42.2,0,0,0,42.58,0a43.48,43.48,0,0,0-28.3,10.47,43.42,43.42,0,0,0-13,22.24A52.61,52.61,0,0,0,.1,39.94c-.78,9.91,3.25,18.44,5.44,22.61,4.76,8.73,12.72,14.13,13.64,14.81a49.68,49.68,0,0,0,15.2,6.26,32.38,32.38,0,0,0,7.08.8,50.44,50.44,0,0,0,9.65-.86A39.39,39.39,0,0,0,59,81.09,27.6,27.6,0,0,0,63.07,79,44.17,44.17,0,0,0,81.51,57.36,47.93,47.93,0,0,0,83,52.78a42.86,42.86,0,0,0,1.14-6.38A42.05,42.05,0,0,0,83.21,31.75Zm-.53,17.32c-.22,1-.37,2.08-.7,3.31a43.61,43.61,0,0,1-9.39,17.35A40.48,40.48,0,0,1,55.06,81,43.62,43.62,0,0,1,46,83a40,40,0,0,1-26.17-6.82C16.46,73.84,8,67.71,4.08,56.57A36.93,36.93,0,0,1,2.23,33.32a41.27,41.27,0,0,1,11.22-20.4C15,11.39,24.13,1.73,41.41,1.14a39.51,39.51,0,0,1,23.5,6.77c2.33,1.52,9.22,5.69,15,17.66A41.27,41.27,0,0,1,82.68,49.07ZM42.27,40.91c.23,0,.26,0,.49-.62,0,0,.42-.95.65-1.54.1-.2.1-.26-.26-.33a.33.33,0,0,0-.42.23,6.15,6.15,0,0,0-.36.88c-.32.46-.42,0-.42,0l-.39-.88c0-.2,0-.2-.42-.16s-.23.33-.23.33.26.72.81,1.9C41.82,40.87,42,40.91,42.27,40.91Zm-1.1,8.21c-.16-.26-.16-.26-.07-.49s.1-.29.07-.56c-.26-.69-.81-.49-1.33-.49s-.52.13-.52.36.13,2,.13,2,0,.16.32.16.23-.26.23-.26a1.81,1.81,0,0,0,0-.56c.23-.46.42-.2,1,.52.16.23.32.23.49.1a.17.17,0,0,0,0-.26A3,3,0,0,0,41.17,49.11Zm-.81-.56a1.58,1.58,0,0,1-.42-.1V48A1.06,1.06,0,0,1,40.3,48c.19,0,.39.07.39.26A.33.33,0,0,1,40.36,48.56Zm2.1-3.27c.36,0,.32-.39.32-.39s0-1.21,0-1.8-.36-.43-.36-.43c-.55,0-.36.36-.36.36a16.07,16.07,0,0,1,0,1.73C42,45.29,42.33,45.26,42.46,45.29Zm-1.66-21c.83,0,.76-.7.76-1.26s-.47-.41-.47-.41H40c-.36,0-.32.5-.13,1S40.32,24.28,40.81,24.33Zm-.19-1.19c.26,0,.72,0,.69.38s-.23.55-.71.55c0,0-.6-.19-.6-.52S40.52,23.13,40.62,23.13Zm1.76.62c.07.39.44.53,1,.61s.6-.43.72-1.1-.28-.53-.28-.53l-.75,0c-.92,0-.75.33-.75.33A2.55,2.55,0,0,0,42.38,23.76Zm.63-.54s1.1-.19.84.46c-.29.39-.52.46-.74.39S42.08,23.67,43,23.21Zm-.32,25.25c0,.26,0,1.41,0,1.41A.62.62,0,0,0,43,50c.16,0,.36,0,.32-.16s0-1,0-1.34.23-.33.48-.33.26,0,.32-.29-.32-.3-.32-.3l-1.49,0c-.39,0-.55.1-.55.26s.13.36.49.39S42.69,48.2,42.69,48.46Zm-6.31-.52c-.32-.06-.39,0-.71,1-.19.65-.45,0-.45,0l-.36-.49c-.07-.23-.1-.29-.42-.13s-.16.36-.16.36.36.56.94,1.54c.13.29.19.23.52.23s.39-.33.39-.59l.39-1.51C36.57,48.17,36.54,48,36.38,47.94Zm1.78-2.61c0-.46-.42-.33-.84-.26,0,0-.39.13-.39-.1a.32.32,0,0,1,.36-.36.47.47,0,0,0,.39-.26c0-.23-.26-.23-.39-.23s-.29.1-.29-.16.49-.33.74-.33.32-.16.32-.36-.19-.23-.39-.23a7.92,7.92,0,0,0-1.07.13c-.32.07-.39.23-.39.43s.07,1.83.07,1.83a.29.29,0,0,0,.32.36,8.6,8.6,0,0,0,1-.1C38.06,45.62,38.16,45.55,38.16,45.32Zm.1,3c-.06-.56-.1-.65-.45-.65s-.29.2-.29.49.1,1.9.1,1.9.13.1.52.1.19-.39.19-.39S38.32,48.89,38.26,48.33ZM40,40.71c0-.39-.19-.33-1-.23-.23,0-.23-.3-.23-.3s0-.92,0-1.31-.39-.23-.39-.23c-.26,0-.32.13-.32.36a17.75,17.75,0,0,0,.1,1.9c0,.33.23.23.42.23s.74-.13,1.1-.13S40,40.94,40,40.71Zm-.16,4.45a2.42,2.42,0,0,1,0-.65c0-.56.29-.2.91.62.13.29.29.1.52.07.23-.29-.13-.46-.36-.85,0-.16-.29-.26-.1-.36a.54.54,0,0,0,.23-.52c0-.79-1-.75-1.36-.75s-.55.07-.55.39.06,2.13.06,2.13C39.71,45.71,39.81,45.16,39.81,45.16Zm.16-2c.36,0,.36.07.36.29s-.23.2-.52.2C39.81,43.66,39.62,43.16,40,43.16ZM59.88,61.4c.27-.86-.34-.91-.34-.91a.44.44,0,0,0-.51,0,.81.81,0,0,0-.32,1.05c.07.07,0,.22,0,.37s-.18.32-.18.69a.73.73,0,0,0,.79.74,1.1,1.1,0,0,0,.56-.2c.41-.32.24-1,0-1.25A.38.38,0,0,1,59.88,61.4Zm-.58-.64c.22,0,.29.15.29.32s0,.27-.29.39a.27.27,0,0,1-.32-.3C59,60.84,59.08,60.77,59.3,60.77Zm.07,2.13c-.17,0-.39-.1-.44-.49a.36.36,0,0,1,.29-.44s.54-.2.52.52C59.72,62.83,59.55,62.9,59.38,62.9Zm-31-.78c.53-.17.4-1.11.35-2.09,0-.59-.23-.62-.23-.62a.23.23,0,0,0-.15.33,11.72,11.72,0,0,1,0,1.2,1,1,0,0,1-.15.86c-.36.25-.47.15-.69-.15A3.58,3.58,0,0,1,27.37,60c0-.44-.13-.42-.25-.42s-.08.08-.13.28a9.82,9.82,0,0,0,.1,1.89A.81.81,0,0,0,28.38,62.12Zm-3.16.15c.68,0,.78-.72.86-1.36.07-1.42-1-1.43-1-1.43-.63.12-.81.72-.83,1.31C24.29,62,24.74,62.22,25.22,62.27Zm-.07-2.48s.55-.06.55,1.12c0,.56-.19,1-.5,1s-.54-.43-.54-.92S24.71,60,25.15,59.79Zm32.36.88c-.22,0-.16.17-.16.17s0,1.45,0,2.28c0,.27.11.27.28.29s.14-.34.14-.34,0-1.3,0-2.06C57.89,60.57,57.51,60.67,57.51,60.67ZM30,62.17a.18.18,0,0,0,.13-.24S30,60.6,30,60.41s.2,0,.2,0,.47.76,1.05,1.52c.22.19.27-.06.27-.3s-.14-1.91-.14-2.11,0-.3-.19-.3-.13,0-.13.23,0,.69.07,1.37c0,.41-.21.15-.21.15s-.63-.87-.92-1.36c-.22-.32-.41-.2-.44,0s.07,1.14.12,2.44C29.74,62.27,30,62.17,30,62.17ZM22.62,62c.14,0,.11,0,.11-.25s-.06-.61-.06-.86a.24.24,0,0,1,.26-.24h.34c.17,0,.13,0,.13-.11s-.27-.18-.61-.21-.16-.36-.16-.63.26-.19.26-.19,0,.07.61.07c.34,0,.12-.24,0-.26s-.56-.12-.85-.15-.32,0-.32.3.14,2.33.14,2.33A.29.29,0,0,0,22.62,62ZM33,61.76a1.13,1.13,0,0,0,.71-.33,1.64,1.64,0,0,0,.46-1.2,1.2,1.2,0,0,0-.93-1.33c-.66-.17-.64.2-.64.2s0,1.62,0,2.33C32.59,61.72,32.77,61.76,33,61.76Zm-.11-2.36c0-.22.14-.31.38-.16a1.22,1.22,0,0,1,.62,1c-.07.54-.47,1.23-.93.93C32.92,61.21,32.83,59.61,32.85,59.39Zm11.76,1.23c.15,0,.19-.15.19-.15l.22-.61c.12-.24.34-.15.63-.1s.27.37.27.76.09.29.26.29.17,0,.17-.22-.2-2-.3-2.5-.57-.39-.66-.12c-.29.54-.68,1.74-.92,2.31C44.35,60.52,44.47,60.59,44.62,60.62Zm.73-1.6.22-.64s.17-.22.19,0c0,.47.19,1.06-.29.91C45.47,59.34,45.2,59.37,45.35,59Zm2.55,2A1.21,1.21,0,0,0,49,60c.15-1.4-.63-1.64-1-1.77a.2.2,0,0,0-.29.1s-.36,1.57-.53,2.53C47.16,61.11,47.41,61.08,47.89,61.06Zm-.22-.74A10.51,10.51,0,0,0,48,58.78a.26.26,0,0,1,.34-.17,1,1,0,0,1,.41,1.13c-.17.61-.27,1-.9,1C47.63,60.67,47.63,60.59,47.68,60.32Zm-10.34.37c0,.32.17.25.73,0A1.67,1.67,0,0,0,39,59.1a1.11,1.11,0,0,0-1.29-1.19c-.53,0-.42.28-.42.28S37.36,60.25,37.33,60.69Zm.3-2.32s0-.19.38-.14a.91.91,0,0,1,.61.94,1.35,1.35,0,0,1-.54,1.06c-.34.22-.4.16-.4,0C37.61,58.93,37.63,58.37,37.63,58.37Zm-2.52,2.84c0,.27.27.08,1-.07.44,0,.42-.16.4-.3s-.1-.11-.3-.11a5.65,5.65,0,0,0-.7.2c-.17,0-.14-.53-.14-.78s.28-.29.6-.31.23,0,.23-.2-.23-.13-.62-.06-.26-.16-.26-.16,0-.27,0-.51.16-.26.74-.38c.29,0,.42,0,.42-.2s-.27-.11-.27-.11l-.92.17a.33.33,0,0,0-.32.38S35,60.1,35.12,61.21Z"/><text class="cls-2" transform="translate(101.33 57.58)">Northeaste<tspan class="cls-3" x="211.5" y="0">r</tspan><tspan x="230.3" y="0">n Uni</tspan><tspan class="cls-4" x="342.3" y="0">v</tspan><tspan x="363.4" y="0">e</tspan><tspan class="cls-5" x="384.4" y="0">r</tspan><tspan x="402.37" y="0">sity</tspan></text></g></g></svg>